<svg xmlns="http://www.w3.org/2000/svg" width="138.974" height="41.178" viewBox="0 0 138.974 41.178">
  <g id="en" transform="translate(0)">
    <path id="Path_67840" data-name="Path 67840" d="M134.03,41.178H4.868A4.88,4.88,0,0,1,0,36.305V4.865A4.872,4.872,0,0,1,4.868,0H134.03a4.939,4.939,0,0,1,4.944,4.865v31.44A4.946,4.946,0,0,1,134.03,41.178Z" transform="translate(0 0)" fill="#a6a6a6"/>
    <path id="Path_67841" data-name="Path 67841" d="M137.952,36.28A3.943,3.943,0,0,1,134,40.223H4.842A3.948,3.948,0,0,1,.89,36.28V4.838A3.953,3.953,0,0,1,4.842.89H134a3.947,3.947,0,0,1,3.947,3.948V36.28Z" transform="translate(0.026 0.026)"/>
    <path id="Path_67842" data-name="Path 67842" d="M30.638,20.183a5.967,5.967,0,0,1,2.842-5.007,6.112,6.112,0,0,0-4.814-2.6c-2.025-.213-3.989,1.212-5.021,1.212-1.052,0-2.641-1.191-4.352-1.156a6.409,6.409,0,0,0-5.394,3.29c-2.333,4.038-.593,9.973,1.642,13.238,1.118,1.6,2.424,3.384,4.134,3.321,1.673-.069,2.3-1.066,4.316-1.066,2,0,2.587,1.066,4.331,1.026,1.8-.029,2.926-1.606,4-3.219a13.21,13.21,0,0,0,1.831-3.73,5.769,5.769,0,0,1-3.521-5.306Zm-3.294-9.757a5.874,5.874,0,0,0,1.344-4.209,5.983,5.983,0,0,0-3.869,2,5.59,5.59,0,0,0-1.379,4.054,4.942,4.942,0,0,0,3.9-1.846Zm27.5,21.822H52.51l-1.281-4.024H46.778l-1.22,4.024H43.282l4.41-13.7h2.724l4.432,13.7Zm-4-5.712-1.158-3.577q-.184-.548-.691-2.581h-.041q-.308,1.295-.651,2.581l-1.138,3.577h3.678Zm15.346.652a5.614,5.614,0,0,1-1.362,3.983,3.982,3.982,0,0,1-3.029,1.3,3.028,3.028,0,0,1-2.805-1.4h-.041v5.2H56.757V25.622q0-1.584-.081-3.252h1.93l.123,1.566h.041a3.905,3.905,0,0,1,6.25-.387,5.442,5.442,0,0,1,1.169,3.639Zm-2.236.08A4.067,4.067,0,0,0,63.3,24.89a2.247,2.247,0,0,0-1.911-.976,2.282,2.282,0,0,0-1.473.538,2.5,2.5,0,0,0-.864,1.413,2.873,2.873,0,0,0-.1.669v1.647A2.639,2.639,0,0,0,59.614,30a2.191,2.191,0,0,0,1.717.742,2.247,2.247,0,0,0,1.93-.955,4.2,4.2,0,0,0,.692-2.521Zm13.6-.08a5.609,5.609,0,0,1-1.363,3.983,3.979,3.979,0,0,1-3.028,1.3,3.026,3.026,0,0,1-2.8-1.4h-.041v5.2H68.12V25.622q0-1.584-.081-3.252h1.93l.123,1.566h.041a3.906,3.906,0,0,1,6.251-.387,5.458,5.458,0,0,1,1.167,3.639Zm-2.236.08a4.067,4.067,0,0,0-.652-2.378,2.244,2.244,0,0,0-1.91-.976,2.285,2.285,0,0,0-1.474.538,2.5,2.5,0,0,0-.863,1.413,2.93,2.93,0,0,0-.1.669v1.647A2.647,2.647,0,0,0,70.974,30a2.2,2.2,0,0,0,1.719.742,2.247,2.247,0,0,0,1.93-.955,4.2,4.2,0,0,0,.692-2.521Zm14.939,1.139a3.651,3.651,0,0,1-1.217,2.845,5.393,5.393,0,0,1-3.732,1.2,6.532,6.532,0,0,1-3.551-.853l.509-1.829a6.016,6.016,0,0,0,3.173.875,3,3,0,0,0,1.932-.56,1.829,1.829,0,0,0,.69-1.5,1.908,1.908,0,0,0-.569-1.4,5.292,5.292,0,0,0-1.89-1.059Q82,24.781,82,22.195a3.476,3.476,0,0,1,1.261-2.768,4.971,4.971,0,0,1,3.354-1.079A6.649,6.649,0,0,1,89.726,19l-.549,1.789a5.394,5.394,0,0,0-2.622-.63,2.654,2.654,0,0,0-1.808.569,1.626,1.626,0,0,0-.549,1.24,1.674,1.674,0,0,0,.629,1.341,7.109,7.109,0,0,0,1.993,1.057,6.762,6.762,0,0,1,2.6,1.666,3.48,3.48,0,0,1,.832,2.375Zm7.257-4.39H95.092v4.8q0,1.83,1.281,1.829a3.9,3.9,0,0,0,.975-.1l.061,1.667a4.973,4.973,0,0,1-1.707.243,2.634,2.634,0,0,1-2.033-.793,3.894,3.894,0,0,1-.732-2.663V24.015H91.495V22.368h1.441V20.559l2.156-.651v2.459h2.419v1.649Zm10.915,3.211a5.419,5.419,0,0,1-1.3,3.74,4.646,4.646,0,0,1-3.62,1.5,4.417,4.417,0,0,1-3.464-1.442,5.253,5.253,0,0,1-1.291-3.638,5.366,5.366,0,0,1,1.331-3.76,4.607,4.607,0,0,1,3.587-1.464,4.511,4.511,0,0,1,3.5,1.443A5.193,5.193,0,0,1,108.426,27.228Zm-2.277.071a4.443,4.443,0,0,0-.589-2.344,2.168,2.168,0,0,0-1.97-1.182,2.2,2.2,0,0,0-2.013,1.182,4.529,4.529,0,0,0-.589,2.385,4.437,4.437,0,0,0,.589,2.343,2.243,2.243,0,0,0,3.963-.021A4.459,4.459,0,0,0,106.149,27.3Zm9.411-3a3.811,3.811,0,0,0-.692-.061,2.074,2.074,0,0,0-1.789.875,3.289,3.289,0,0,0-.549,1.951v5.183h-2.194l.021-6.768q0-1.708-.082-3.11h1.912l.08,1.89h.061a3.378,3.378,0,0,1,1.1-1.565,2.654,2.654,0,0,1,1.586-.529,3.525,3.525,0,0,1,.549.04V24.3Zm9.816,2.542a5.148,5.148,0,0,1-.08,1h-6.584a2.866,2.866,0,0,0,.955,2.237,3.262,3.262,0,0,0,2.154.691,7.282,7.282,0,0,0,2.664-.467l.344,1.524a8.236,8.236,0,0,1-3.312.61,4.8,4.8,0,0,1-3.609-1.352,4.992,4.992,0,0,1-1.31-3.628,5.659,5.659,0,0,1,1.221-3.719,4.206,4.206,0,0,1,3.454-1.584,3.681,3.681,0,0,1,3.233,1.584A5.343,5.343,0,0,1,125.376,26.842Zm-2.093-.569a2.982,2.982,0,0,0-.426-1.687,1.917,1.917,0,0,0-1.749-.915,2.082,2.082,0,0,0-1.747.895,3.275,3.275,0,0,0-.65,1.707h4.572ZM50.117,10.121a3.379,3.379,0,0,1-1.089,2.736,4.332,4.332,0,0,1-2.865.848,13.283,13.283,0,0,1-1.578-.08V7a11.646,11.646,0,0,1,1.858-.14,4.006,4.006,0,0,1,2.666.769,3.108,3.108,0,0,1,1.008,2.487Zm-1.138.03a2.46,2.46,0,0,0-.624-1.808,2.459,2.459,0,0,0-1.823-.629,4.566,4.566,0,0,0-.869.07v5.033a5.7,5.7,0,0,0,.729.03,2.552,2.552,0,0,0,1.912-.689,2.758,2.758,0,0,0,.675-2.007Zm7.169,1.028a2.662,2.662,0,0,1-.639,1.838,2.282,2.282,0,0,1-1.778.739,2.169,2.169,0,0,1-1.7-.709,2.583,2.583,0,0,1-.633-1.787,2.636,2.636,0,0,1,.654-1.847,2.267,2.267,0,0,1,1.762-.719A2.219,2.219,0,0,1,55.53,9.4,2.562,2.562,0,0,1,56.149,11.179Zm-1.119.035a2.195,2.195,0,0,0-.289-1.152,1.065,1.065,0,0,0-.968-.581,1.082,1.082,0,0,0-.989.581,2.224,2.224,0,0,0-.289,1.172,2.195,2.195,0,0,0,.289,1.152,1.089,1.089,0,0,0,.979.581,1.076,1.076,0,0,0,.968-.591,2.181,2.181,0,0,0,.3-1.161Zm9.206-2.421-1.518,4.853h-.988L61.1,11.538a15.771,15.771,0,0,1-.39-1.568h-.02a11.479,11.479,0,0,1-.39,1.568l-.668,2.107h-1L57.205,8.793h1.109l.549,2.307q.2.818.329,1.558h.02q.12-.608.4-1.547L60.3,8.794h.879l.66,2.267q.239.829.389,1.6h.03a15.264,15.264,0,0,1,.329-1.6l.589-2.267h1.059Zm5.593,4.853H68.75V10.866q0-1.285-.978-1.285a.974.974,0,0,0-.779.353,1.253,1.253,0,0,0-.3.832v2.878H65.615V10.179q0-.639-.039-1.389h.948l.05.759h.03a1.559,1.559,0,0,1,.559-.586,1.823,1.823,0,0,1,.978-.273,1.549,1.549,0,0,1,1.129.44,2.136,2.136,0,0,1,.559,1.608Zm2.975,0H71.726V6.566H72.8Zm6.352-2.467a2.662,2.662,0,0,1-.639,1.838,2.283,2.283,0,0,1-1.778.739,2.166,2.166,0,0,1-1.7-.709,2.583,2.583,0,0,1-.633-1.787,2.636,2.636,0,0,1,.654-1.847,2.267,2.267,0,0,1,1.761-.719,2.222,2.222,0,0,1,1.719.708A2.562,2.562,0,0,1,79.156,11.179Zm-1.12.035a2.195,2.195,0,0,0-.289-1.152,1.064,1.064,0,0,0-.967-.581,1.08,1.08,0,0,0-.989.581,2.224,2.224,0,0,0-.289,1.172,2.195,2.195,0,0,0,.289,1.152,1.089,1.089,0,0,0,.979.581,1.075,1.075,0,0,0,.967-.591A2.172,2.172,0,0,0,78.036,11.214Zm6.341,2.432h-.969l-.08-.559H83.3a1.661,1.661,0,0,1-1.418.669,1.463,1.463,0,0,1-1.108-.44,1.378,1.378,0,0,1-.38-.988,1.508,1.508,0,0,1,.744-1.358,3.863,3.863,0,0,1,2.093-.459V10.42q0-.959-1.008-.958a2.257,2.257,0,0,0-1.265.359l-.219-.708A3.112,3.112,0,0,1,82.4,8.694q1.9,0,1.9,2.007v1.787A7.58,7.58,0,0,0,84.377,13.645Zm-1.12-1.668v-.748q-1.785-.031-1.785.978a.731.731,0,0,0,.207.569.755.755,0,0,0,.527.189,1.09,1.09,0,0,0,.66-.224A.919.919,0,0,0,83.257,11.978Zm7.25,1.668H89.55l-.05-.779h-.03a1.613,1.613,0,0,1-1.559.889,1.826,1.826,0,0,1-1.458-.689,2.683,2.683,0,0,1-.579-1.787A2.814,2.814,0,0,1,86.5,9.372,1.934,1.934,0,0,1,88,8.693a1.454,1.454,0,0,1,1.367.659h.021V6.566h1.08v5.772Q90.469,13.047,90.507,13.645ZM89.389,11.6V10.79a1.229,1.229,0,0,0-.42-.993,1.06,1.06,0,0,0-.722-.265,1.107,1.107,0,0,0-.949.48,2.056,2.056,0,0,0-.346,1.228,1.917,1.917,0,0,0,.331,1.168,1.11,1.11,0,0,0,.943.479,1.039,1.039,0,0,0,.852-.4,1.33,1.33,0,0,0,.31-.888Zm10.345-.42a2.662,2.662,0,0,1-.639,1.838,2.28,2.28,0,0,1-1.778.739,2.172,2.172,0,0,1-1.7-.709,2.583,2.583,0,0,1-.633-1.787,2.636,2.636,0,0,1,.654-1.847A2.268,2.268,0,0,1,97.4,8.694a2.217,2.217,0,0,1,1.717.708A2.562,2.562,0,0,1,99.734,11.179Zm-1.118.035a2.195,2.195,0,0,0-.289-1.152,1.067,1.067,0,0,0-.969-.581,1.084,1.084,0,0,0-.989.581,2.224,2.224,0,0,0-.289,1.172,2.195,2.195,0,0,0,.289,1.152,1.1,1.1,0,0,0,1.948-.01A2.19,2.19,0,0,0,98.616,11.214Zm6.919,2.432h-1.078V10.866q0-1.285-.979-1.285a.97.97,0,0,0-.778.353,1.248,1.248,0,0,0-.3.832v2.878h-1.08V10.179q0-.639-.038-1.389h.947l.05.759h.03a1.575,1.575,0,0,1,.559-.586,1.827,1.827,0,0,1,.979-.273,1.548,1.548,0,0,1,1.128.44,2.132,2.132,0,0,1,.559,1.608ZM112.8,9.6h-1.188v2.357c0,.6.211.9.629.9a1.9,1.9,0,0,0,.481-.05l.028.818a2.424,2.424,0,0,1-.838.12,1.29,1.29,0,0,1-1-.389,1.9,1.9,0,0,1-.36-1.308V9.6h-.709V8.793h.709V7.9l1.057-.319V8.792h1.188V9.6Zm5.711,4.045h-1.08V10.887q0-1.3-.977-1.305a1.03,1.03,0,0,0-1.029.757,1.356,1.356,0,0,0-.05.388v2.918h-1.078V6.566h1.078V9.491h.021a1.631,1.631,0,0,1,1.458-.8,1.5,1.5,0,0,1,1.11.44,2.21,2.21,0,0,1,.549,1.628v2.886Zm5.891-2.656a2.6,2.6,0,0,1-.04.489h-3.236a1.415,1.415,0,0,0,.468,1.1,1.607,1.607,0,0,0,1.059.34,3.574,3.574,0,0,0,1.308-.23l.169.749a4.063,4.063,0,0,1-1.629.3,2.352,2.352,0,0,1-1.772-.664,2.446,2.446,0,0,1-.643-1.782,2.777,2.777,0,0,1,.6-1.827,2.063,2.063,0,0,1,1.7-.778,1.8,1.8,0,0,1,1.586.778,2.591,2.591,0,0,1,.432,1.527Zm-1.029-.279a1.453,1.453,0,0,0-.209-.829.942.942,0,0,0-.859-.45,1.024,1.024,0,0,0-.859.44,1.633,1.633,0,0,0-.32.839h2.246Z" transform="translate(0.377 0.183)" fill="#fff"/>
  </g>
</svg>
