<svg id="Group_39563" data-name="Group 39563" xmlns="http://www.w3.org/2000/svg" width="24" height="24" viewBox="0 0 24 24">
  <path id="Path_67929" data-name="Path 67929" d="M0,0H24V24H0Z" fill="none"/>
  <path id="Path_67930" data-name="Path 67930" d="M10,19.748V16.4c0-1.283.995-2.292,2.467-2.868A8.515,8.515,0,0,0,4.453,14.66,8.017,8.017,0,0,0,10,19.748Zm8.88-3.662A4.636,4.636,0,0,0,15.5,15c-2.006,0-3.5.8-3.5,1.4V20a8,8,0,0,0,6.88-3.914ZM9.55,11.5A2.25,2.25,0,1,0,7.3,9.25,2.25,2.25,0,0,0,9.55,11.5Zm5.95,1a2,2,0,1,0-2-2A2,2,0,0,0,15.5,12.5ZM12,22A10,10,0,1,1,22,12,10,10,0,0,1,12,22Z" fill="#707070"/>
</svg>
