<svg id="Iconly_Bold_Arrow_-_Left" data-name="Iconly/Bold/Arrow - Left" xmlns="http://www.w3.org/2000/svg" width="22" height="15" viewBox="0 0 22 15">
  <g id="Arrow_-_Left" data-name="Arrow - Left" transform="translate(0 0)">
    <path id="Arrow_-_Left-2" data-name="Arrow - Left" d="M9.706,15a6.042,6.042,0,0,1-1.641-.51A27.628,27.628,0,0,1,1.23,9.754l-.463-.5A4.471,4.471,0,0,1,.424,8.84,2.247,2.247,0,0,1,0,7.51,2.352,2.352,0,0,1,.459,6.088l.476-.525.107-.113A26.972,26.972,0,0,1,8.241.42L8.539.3A4.878,4.878,0,0,1,9.706,0a2.394,2.394,0,0,1,1.112.275,2.337,2.337,0,0,1,.988,1.13,12.46,12.46,0,0,1,.319,1.331,28.563,28.563,0,0,1,.3,4.314v.442a34.747,34.747,0,0,1-.264,4.61l-.139.68a4.954,4.954,0,0,1-.285.98A2.213,2.213,0,0,1,9.777,15Zm5.934-6.011a1.489,1.489,0,0,1,0-2.977L20.163,5.6a1.9,1.9,0,0,1,0,3.795Z" transform="translate(0 0)"/>
  </g>
</svg>
