<svg xmlns="http://www.w3.org/2000/svg" width="93" height="43.131" viewBox="0 0 93 43.131">
  <g id="Group_39451" data-name="Group 39451" transform="translate(-64.675 -17.231)">
    <g id="Group_39450" data-name="Group 39450" transform="translate(-2 4.722)">
      <g id="Layer_x0020_1" transform="translate(66.675 12.509)">
        <path id="Path_67573" data-name="Path 67573" d="M16670.182,8137.31l4.363.318-.672,3.129a20.689,20.689,0,0,0-3.844-.474Zm3.3,5.269-.773,3.611a14.539,14.539,0,0,0-2.963-.374l.189-3.677A18.6,18.6,0,0,1,16673.48,8142.578Zm-1.049,4.888-.713,3.324a9.768,9.768,0,0,0-2.215-.275l.174-3.4A13.088,13.088,0,0,1,16672.432,8147.466Zm-.9,4.187-.277,1.3-.66-.029h-.008c-.365,0-.781,0-1.207.02l.08-1.547A8.778,8.778,0,0,1,16671.531,8151.653Z" transform="translate(-16646.969 -8137.31)" fill="#7c35ab" fill-rule="evenodd"/>
        <path id="Path_67574" data-name="Path 67574" d="M15716.156,13630.489l.219,1.55c-.136.011-.271.022-.407.04a6.186,6.186,0,0,0-1.452.326l-.477-1.535A8.722,8.722,0,0,1,15716.156,13630.489Z" transform="translate(-15694.219 -13616.392)" fill="#7c35ab" fill-rule="evenodd"/>
        <path id="Path_67575" data-name="Path 67575" d="M15249.491,11974.8l.479,3.376a9.549,9.549,0,0,0-2.254.411l-1.006-3.245A12.857,12.857,0,0,1,15249.491,11974.8Z" transform="translate(-15228.156 -11964.949)" fill="#7c35ab" fill-rule="evenodd"/>
        <path id="Path_67576" data-name="Path 67576" d="M14703.105,10048.9l.517,3.652a14.276,14.276,0,0,0-2.985.583l-1.1-3.536A18.665,18.665,0,0,1,14703.105,10048.9Z" transform="translate(-14682.469 -10043.993)" fill="#7c35ab" fill-rule="evenodd"/>
        <path id="Path_67577" data-name="Path 67577" d="M14775.975,13870.8l.761,1.467-.031.016a7.356,7.356,0,0,0-1.522,1.055l-1.092-1.481A8.5,8.5,0,0,1,14775.975,13870.8Z" transform="translate(-14756.816 -13856.083)" fill="#7c35ab" fill-rule="evenodd"/>
        <path id="Path_67578" data-name="Path 67578" d="M13842.586,12387.4l1.568,3.018a9.368,9.368,0,0,0-2.006,1.124l-2-2.712A12.618,12.618,0,0,1,13842.586,12387.4Z" transform="translate(-13825.407 -12376.492)" fill="#7c35ab" fill-rule="evenodd"/>
        <path id="Path_67579" data-name="Path 67579" d="M12729.082,10644.1l1.718,3.307a14.019,14.019,0,0,0-2.617,1.527l-2.231-3.027A17.873,17.873,0,0,1,12729.082,10644.1Z" transform="translate(-12714.228 -10637.666)" fill="#7c35ab" fill-rule="evenodd"/>
        <path id="Path_67580" data-name="Path 67580" d="M10123.59,10415.944l2.922-3.085,1.724,1.878c-.264.226-.522.456-.773.694a19.18,19.18,0,0,0-1.9,2.092Zm5.933.194,2.556,2.783c-.157.137-.311.275-.462.418a13.1,13.1,0,0,0-1.573,1.783l-2.986-2.4a17.117,17.117,0,0,1,1.791-1.982C10129.067,10416.538,10129.292,10416.335,10129.522,10416.139Zm3.458,3.766,2.274,2.478c-.163.135-.323.275-.478.422a8.96,8.96,0,0,0-1.092,1.242l-2.59-2.078a12.083,12.083,0,0,1,1.492-1.708C10132.717,10420.139,10132.847,10420.021,10132.98,10419.9Zm2.884,3.141,1.259,1.372a6.7,6.7,0,0,0-1.153,1.462l-1.571-1.262a8.11,8.11,0,0,1,1.035-1.193C10135.572,10423.294,10135.716,10423.166,10135.864,10423.045Z" transform="translate(-10118.917 -10407.02)" fill="#7c35ab" fill-rule="evenodd"/>
        <path id="Path_67581" data-name="Path 67581" d="M13699.777,15142.489l1.751,1.014a6.472,6.472,0,0,0-.647,1.709l-1.971-.78A7.65,7.65,0,0,1,13699.777,15142.489Z" transform="translate(-13684.55 -15124.511)" fill="#7c35ab" fill-rule="evenodd"/>
        <path id="Path_67582" data-name="Path 67582" d="M12273.448,14320.6l2.854,1.65a8.529,8.529,0,0,0-.938,2.058l-3-1.19A11.355,11.355,0,0,1,12273.448,14320.6Z" transform="translate(-12261.865 -14304.73)" fill="#7c35ab" fill-rule="evenodd"/>
        <path id="Path_67583" data-name="Path 67583" d="M10465.62,13304.8l3.333,1.928a12.551,12.551,0,0,0-1.19,2.691l-3.623-1.436A16.31,16.31,0,0,1,10465.62,13304.8Z" transform="translate(-10458.544 -13291.537)" fill="#7c35ab" fill-rule="evenodd"/>
        <path id="Path_67584" data-name="Path 67584" d="M8399.07,15021.953l.328-4.133,2.787.531a17.779,17.779,0,0,0-.324,3.377c0,.117,0,.232,0,.349Zm5.037-3.233,3.836.731a12.417,12.417,0,0,0-.205,2.25q0,.321.017.638l-3.926-.175c0-.144-.006-.29-.006-.436A16.011,16.011,0,0,1,8404.107,15018.72Zm5.184.989,3.127.6a8.409,8.409,0,0,0-.21,1.866c0,.121,0,.243.009.364l-3.082-.136c-.014-.232-.021-.464-.021-.7A11.272,11.272,0,0,1,8409.291,15019.709Zm4.037.771,2.07.4a6.417,6.417,0,0,0-.151,1.36c0,.146,0,.292.014.437l-2.113-.094c-.007-.135-.011-.271-.011-.406A7.562,7.562,0,0,1,8413.328,15020.479Z" transform="translate(-8399.07 -15000.161)" fill="#7c35ab" fill-rule="evenodd"/>
        <path id="Path_67585" data-name="Path 67585" d="M13617.6,17009.16l2.072-.3a6.2,6.2,0,0,0,.459,1.756l-1.945.576A7.568,7.568,0,0,1,13617.6,17009.16Z" transform="translate(-13603.46 -16986.094)" fill="#7c35ab" fill-rule="evenodd"/>
        <path id="Path_67586" data-name="Path 67586" d="M12177.4,17176.74l2.984-.43a8.291,8.291,0,0,0,.613,2.162l-2.785.826A11.259,11.259,0,0,1,12177.4,17176.74Z" transform="translate(-12167.163 -17153.111)" fill="#7c35ab" fill-rule="evenodd"/>
        <path id="Path_67587" data-name="Path 67587" d="M10244.7,17419.967l3.877-.559a12.49,12.49,0,0,0,.854,2.754l-3.762,1.113A15.944,15.944,0,0,1,10244.7,17419.967Z" transform="translate(-10239.7 -17395.586)" fill="#7c35ab" fill-rule="evenodd"/>
        <path id="Path_67588" data-name="Path 67588" d="M9345.866,17808.8l-2.556-3.363,2.774-1.436a18.8,18.8,0,0,0,2.247,3.018Zm1.94-5.689,3.449-1.785a13.176,13.176,0,0,0,1.775,2.295l-3.137,2.268A16.77,16.77,0,0,1,9347.807,17803.111Zm4.656-2.41,2.506-1.3a8.867,8.867,0,0,0,1.362,1.83l-2.2,1.592A11.8,11.8,0,0,1,9352.463,17800.7Zm3.32-1.717,1.766-.914c.063.131.133.262.208.389a6.016,6.016,0,0,0,.853,1.129l-1.537,1.109A7.943,7.943,0,0,1,9355.783,17798.984Z" transform="translate(-9340.752 -17773.277)" fill="#7c35ab" fill-rule="evenodd"/>
        <path id="Path_67589" data-name="Path 67589" d="M14695.7,18523.383l1.152-1.434a6.368,6.368,0,0,0,1.31.887c.091.047.184.092.275.133l-.879,1.533A8.532,8.532,0,0,1,14695.7,18523.383Z" transform="translate(-14678.638 -18495.297)" fill="#7c35ab" fill-rule="evenodd"/>
        <path id="Path_67590" data-name="Path 67590" d="M13882.6,19355.883l1.641-2.043a9.335,9.335,0,0,0,1.975,1.191l-1.266,2.207A12.53,12.53,0,0,1,13882.6,19355.883Z" transform="translate(-13867.741 -19325.053)" fill="#7c35ab" fill-rule="evenodd"/>
        <path id="Path_67591" data-name="Path 67591" d="M12695.3,20556.379l2.386-2.969a13.81,13.81,0,0,0,2.523,1.465l-1.888,3.285A17.875,17.875,0,0,1,12695.3,20556.379Z" transform="translate(-12683.659 -20521.545)" fill="#7c35ab" fill-rule="evenodd"/>
        <path id="Path_67592" data-name="Path 67592" d="M14125.622,19025.672l-4.3-.762,1.016-3.021a20.52,20.52,0,0,0,3.791.752Zm-2.688-5.553,1.2-3.561a14.324,14.324,0,0,0,2.918.547l-.616,3.7A18.4,18.4,0,0,1,14122.934,19020.119Zm1.614-4.8.8-2.369a9.577,9.577,0,0,0,2.325.424l-.407,2.441A12.927,12.927,0,0,1,14124.548,19015.318Zm1.079-3.205.55-1.633a7.709,7.709,0,0,0,1.9.424l-.266,1.6A8.76,8.76,0,0,1,14125.627,19012.113Z" transform="translate(-14105.815 -18982.574)" fill="#7c35ab" fill-rule="evenodd"/>
        <path id="Path_67593" data-name="Path 67593" d="M16897.457,19067.344l-4.2,1.15-.523-3.113a20.417,20.417,0,0,0,3.781-.83Zm-5.035-3.8-.621-3.691a14.551,14.551,0,0,0,2.91-.629l1.2,3.559A18.329,18.329,0,0,1,16892.422,19063.545Zm-.836-4.979-.412-2.437a9.825,9.825,0,0,0,2.314-.52l.8,2.375A12.99,12.99,0,0,1,16891.586,19058.566Zm-.559-3.307-.258-1.539c.209,0,.418-.018.621-.037a6,6,0,0,0,1.344-.3l.469,1.391A8.65,8.65,0,0,1,16891.027,19055.26Z" transform="translate(-16867.762 -19025.363)" fill="#7c35ab" fill-rule="evenodd"/>
        <path id="Path_67594" data-name="Path 67594" d="M14636.211,14321.863l3.087.134,0,5.143c-.392,1.1-1.417,1.623-2.945,1.574l-4.5.166a2.919,2.919,0,0,0,.543,1.971c1.854,2.271,4.5,1.918,6.8-.821l.069,2.508c-1.562,1.869-4.7,1.946-7.01.761-4.343-2.228-4.311-8.431.366-10.882A8.166,8.166,0,0,1,14636.211,14321.863Zm1.182,1.945c.035,5.194-2.041,2.27-5.854,3.5C14632.247,14324.262,14633.466,14324.3,14637.393,14323.809Z" transform="translate(-14612.172 -14305.987)" fill="#7c35ab" fill-rule="evenodd"/>
      </g>
      <g id="Group_39449" data-name="Group 39449" transform="translate(94.933 20.026)">
        <text id="witn_x" data-name="witn  x" transform="translate(0.742 19.048)" fill="#7c35ab" font-size="20" font-family="Poppins-SemiBold, Poppins" font-weight="600"><tspan x="0" y="0" xml:space="preserve">witn  x</tspan></text>
        <path id="Path_67595" data-name="Path 67595" d="M14634.9,14321.863l2.522.114,0,4.384a2.17,2.17,0,0,1-2.407,1.342l-3.681.143a2.576,2.576,0,0,0,.444,1.68c1.515,1.934,3.677,1.635,5.555-.7l.057,2.138c-1.275,1.595-3.84,1.66-5.727.65-3.549-1.9-3.521-7.188.3-9.277A6.434,6.434,0,0,1,14634.9,14321.863Zm.966,1.659c.028,4.428-1.668,1.934-4.782,2.979C14631.662,14323.908,14632.657,14323.944,14635.866,14323.522Z" transform="translate(-14585.078 -14313.39)" fill="#7c35ab" stroke="#7c35ab" strokeWidth="0.5" fill-rule="evenodd"/>
      </g>
    </g>
  </g>
</svg>
