<svg xmlns="http://www.w3.org/2000/svg" width="38.081" height="38.081" viewBox="0 0 38.081 38.081">
  <path id="Path_100210" data-name="Path 100210" d="M18.31,8.047A12.125,12.125,0,0,0,8.047,18.31h3.339v3.462H8.047A12.124,12.124,0,0,0,18.31,32.035V28.7h3.462v3.339A12.124,12.124,0,0,0,32.035,21.771H28.7V18.31h3.339A12.124,12.124,0,0,0,21.771,8.047v3.339H18.31ZM4.557,18.31A15.585,15.585,0,0,1,18.31,4.557V1h3.462V4.557A15.585,15.585,0,0,1,35.524,18.31h3.557v3.462H35.524A15.585,15.585,0,0,1,21.771,35.524v3.557H18.31V35.524A15.585,15.585,0,0,1,4.557,21.771H1V18.31Zm20.676,1.731a5.193,5.193,0,1,1-5.193-5.193A5.193,5.193,0,0,1,25.233,20.041Z" transform="translate(-1 -1)" fill="#7c35ab"/>
</svg>
