<svg xmlns="http://www.w3.org/2000/svg" width="11.133" height="12.602" viewBox="0 0 11.133 12.602">
  <g id="Group_38923" data-name="Group 38923" transform="translate(-8987.936 -1609.319)">
    <path id="Path_67249" data-name="Path 67249" d="M109.524,125.591h-5.486a1.386,1.386,0,0,1-1.386-1.386v-7.229a1.386,1.386,0,0,1,1.386-1.386h5.486a1.386,1.386,0,0,1,1.386,1.386V124.2a1.386,1.386,0,0,1-1.386,1.386Zm-5.486-9.3a.686.686,0,0,0-.684.684V124.2a.686.686,0,0,0,.684.684h5.486a.686.686,0,0,0,.684-.684v-7.229a.686.686,0,0,0-.684-.684Z" transform="translate(8885.283 1496.33)" fill="#7c35ab"/>
    <path id="Path_67250" data-name="Path 67250" d="M262.541,9.42h-.308a.349.349,0,0,1,0-.7h.313a.526.526,0,0,0,.524-.524V1.383A.686.686,0,0,0,262.386.7H257.31a.524.524,0,0,0-.524.52.349.349,0,1,1-.7,0A1.224,1.224,0,0,1,257.31,0h5.071a1.386,1.386,0,0,1,1.386,1.386V8.2h0a1.223,1.223,0,0,1-1.226,1.219Z" transform="translate(8735.301 1609.321)" fill="#7c35ab"/>
  </g>
</svg>
