<svg id="Group_39469" data-name="Group 39469" xmlns="http://www.w3.org/2000/svg" width="25.5" height="21.598" viewBox="0 0 25.5 21.598">
  <path id="Path_67845" data-name="Path 67845" d="M0,0H25.5V21.6H0Z" fill="none"/>
  <path id="Path_67846" data-name="Path 67846" d="M2,8.694V3.876A.983.983,0,0,1,3.063,3H22.188a.983.983,0,0,1,1.063.876V8.694a2.457,2.457,0,0,0-2.656,2.19,2.457,2.457,0,0,0,2.656,2.19v4.818a.983.983,0,0,1-1.063.876H3.063A.983.983,0,0,1,2,17.892V13.074a2.457,2.457,0,0,0,2.656-2.19A2.457,2.457,0,0,0,2,8.694Zm7.438-.438v1.752h6.375V8.256Zm0,3.5v1.752h6.375V11.76Z" transform="translate(0.125 -0.085)" fill="#707070"/>
</svg>
