<svg xmlns="http://www.w3.org/2000/svg" width="238" height="22" viewBox="0 0 238 22">
  <g id="Group_39710" data-name="Group 39710" transform="translate(-801 -308)">
    <text id="CREATE_FROM_TEMPLATE" data-name="CREATE FROM TEMPLATE" transform="translate(801 324)" fill="#00d9b7" font-size="16" font-family="Nunito-Bold, Nunito" font-weight="700"><tspan x="0" y="0">CREATE FROM TEMPLATE</tspan></text>
    <g id="Arrow_-_Left" data-name="Arrow - Left" transform="translate(1017 312)">
      <path id="Arrow_-_Left-2" data-name="Arrow - Left" d="M9.706,0A6.042,6.042,0,0,0,8.065.51,27.628,27.628,0,0,0,1.23,5.246l-.463.5a4.471,4.471,0,0,0-.343.417A2.247,2.247,0,0,0,0,7.49,2.352,2.352,0,0,0,.459,8.912l.476.525.107.113a26.972,26.972,0,0,0,7.2,5.03l.3.117a4.878,4.878,0,0,0,1.167.3,2.394,2.394,0,0,0,1.112-.275,2.337,2.337,0,0,0,.988-1.13,12.46,12.46,0,0,0,.319-1.331,28.563,28.563,0,0,0,.3-4.314V7.508a34.747,34.747,0,0,0-.264-4.61l-.139-.68a4.954,4.954,0,0,0-.285-.98A2.213,2.213,0,0,0,9.777,0Zm5.934,6.011a1.489,1.489,0,0,0,0,2.977l4.522.408a1.9,1.9,0,0,0,0-3.795Z" transform="translate(22 15) rotate(180)" fill="#00d9b7"/>
    </g>
  </g>
</svg>
