<svg xmlns="http://www.w3.org/2000/svg" width="374.678" height="187.045" viewBox="0 0 374.678 187.045">
  <g id="Group_39777" data-name="Group 39777" transform="translate(-1049.822 -204.955)">
    <g id="Group_39868" data-name="Group 39868">
      <rect id="Rectangle_1048" data-name="Rectangle 1048" width="374.5" height="187" rx="13.123" transform="translate(1050 205)" fill="#002858"/>
      <g id="Group_61" data-name="Group 61" transform="translate(1237.5 205)">
        <path id="Vector_23" data-name="Vector 23" d="M.744,0C-.916,12.019-.875,38.266,12.578,47.106c16.816,11.049,40.483-1.163,58.545,9.886S89.184,151.2,186.344,108.75" fill="none" stroke="#fff" stroke-width="0.656" opacity="0.5"/>
        <path id="Vector_24" data-name="Vector 24" d="M.7,0C-.858,12.019-.819,38.266,11.781,47.106c15.75,11.049,37.917-1.163,54.834,9.886S83.532,151.2,174.533,108.75" transform="translate(11.811)" fill="none" stroke="#fff" stroke-width="0.656" opacity="0.5"/>
        <path id="Vector_25" data-name="Vector 25" d="M.65,0C-.8,12.019-.764,38.266,10.984,47.106c14.684,11.049,35.351-1.163,51.124,9.886S77.879,151.2,162.723,108.75" transform="translate(23.621)" fill="none" stroke="#fff" stroke-width="0.656" opacity="0.5"/>
        <path id="Vector_26" data-name="Vector 26" d="M.592,0C-.729,12.019-.7,38.266,10.009,47.106,23.391,58.155,42.225,45.942,56.6,56.992s14.373,94.211,91.69,51.758" transform="translate(38.056)" fill="none" stroke="#fff" stroke-width="0.656" opacity="0.5"/>
        <path id="Vector_27" data-name="Vector 27" d="M.548,0C-.674,12.019-.644,38.266,9.256,47.106c12.375,11.049,29.792-1.163,43.084,9.886S65.632,151.2,137.133,108.75" transform="translate(49.211)" fill="none" stroke="#fff" stroke-width="0.656" opacity="0.5"/>
        <path id="Vector_28" data-name="Vector 28" d="M.5,0C-.616,12.019-.588,38.266,8.459,47.106c11.309,11.049,27.226-1.163,39.373,9.886S59.98,151.2,125.323,108.75" transform="translate(61.021)" fill="none" stroke="#fff" stroke-width="0.656" opacity="0.5"/>
        <path id="Vector_29" data-name="Vector 29" d="M.453,0C-.558,12.019-.533,38.266,7.662,47.106c10.244,11.049,24.66-1.163,35.663,9.886s11,94.211,70.188,51.758" transform="translate(72.832)" fill="none" stroke="#fff" stroke-width="0.656" opacity="0.5"/>
        <path id="Vector_30" data-name="Vector 30" d="M.4,0C-.494,12.019-.471,38.266,6.776,47.106c9.059,11.049,21.81-1.163,31.54,9.886s9.73,94.211,62.073,51.758" transform="translate(85.954)" fill="none" stroke="#fff" stroke-width="0.656" opacity="0.5"/>
      </g>
      <g id="Group_62" data-name="Group 62" transform="translate(1050 325.729)" opacity="0.3">
        <path id="Vector_23-2" data-name="Vector 23" d="M.506,0C-.623,6.519-.595,20.756,8.548,25.55c11.428,5.993,27.511-.631,39.786,5.362s12.274,51.1,78.3,28.074" transform="translate(126.635 65.485) rotate(-180)" fill="none" stroke="#fff" stroke-width="0.656" opacity="0.5"/>
        <path id="Vector_24-2" data-name="Vector 24" d="M.474,0C-.583,6.519-.557,20.756,8.006,25.55c10.7,5.993,25.768-.631,37.264,5.362s11.5,51.1,73.339,28.074" transform="translate(118.609 65.485) rotate(-180)" fill="none" stroke="#fff" stroke-width="0.656" opacity="0.5"/>
        <path id="Vector_25-2" data-name="Vector 25" d="M.442,0C-.544,6.519-.519,20.756,7.464,25.55c9.979,5.993,24.024-.631,34.742,5.362s10.718,51.1,68.376,28.074" transform="translate(110.583 65.485) rotate(-180)" fill="none" stroke="#fff" stroke-width="0.656" opacity="0.5"/>
        <path id="Vector_26-2" data-name="Vector 26" d="M.4,0C-.5,6.519-.473,20.756,6.8,25.55c9.094,5.993,21.893-.631,31.66,5.362s9.768,51.1,62.31,28.074" transform="translate(100.773 65.485) rotate(-180)" fill="none" stroke="#fff" stroke-width="0.656" opacity="0.5"/>
        <path id="Vector_27-2" data-name="Vector 27" d="M.372,0C-.458,6.519-.438,20.756,6.29,25.55c8.41,5.993,20.246-.631,29.279,5.362s9.033,51.1,57.623,28.074" transform="translate(93.193 65.485) rotate(-180)" fill="none" stroke="#fff" stroke-width="0.656" opacity="0.5"/>
        <path id="Vector_28-2" data-name="Vector 28" d="M.34,0C-.419,6.519-.4,20.756,5.749,25.55c7.686,5.993,18.5-.631,26.757,5.362s8.255,51.1,52.661,28.074" transform="translate(85.167 65.485) rotate(-180)" fill="none" stroke="#fff" stroke-width="0.656" opacity="0.5"/>
        <path id="Vector_29-2" data-name="Vector 29" d="M.308,0c-.688,6.519-.67,20.756,4.9,25.55,6.961,5.993,16.759-.631,24.236,5.362s7.477,51.1,47.7,28.074" transform="translate(77.14 65.485) rotate(-180)" fill="none" stroke="#fff" stroke-width="0.656" opacity="0.5"/>
        <path id="Vector_30-2" data-name="Vector 30" d="M.273,0C-.335,6.519-.32,20.756,4.6,25.55c6.157,5.993,14.821-.631,21.434,5.362s6.613,51.1,42.184,28.074" transform="translate(68.223 65.485) rotate(-180)" fill="none" stroke="#fff" stroke-width="0.656" opacity="0.5"/>
      </g>
    </g>
    <g id="Layer_x0020_1" transform="translate(1380.998 225.799)">
      <path id="Path_67573" data-name="Path 67573" d="M16670.006,8137.31l3.408.248-.525,2.444a16.116,16.116,0,0,0-3-.37Zm2.576,4.115-.6,2.82a11.388,11.388,0,0,0-2.314-.292l.148-2.872A14.556,14.556,0,0,1,16672.582,8141.425Zm-.818,3.818-.557,2.6a7.646,7.646,0,0,0-1.73-.215l.135-2.655A10.223,10.223,0,0,1,16671.764,8145.243Zm-.7,3.271-.217,1.014-.516-.022h-.006c-.287,0-.611,0-.943.016l.063-1.209A6.884,6.884,0,0,1,16671.061,8148.514Z" transform="translate(-16651.873 -8137.31)" fill="#fff" fill-rule="evenodd"/>
      <path id="Path_67574" data-name="Path 67574" d="M15715.693,13630.489l.17,1.21c-.105.009-.213.018-.318.031a4.905,4.905,0,0,0-1.135.255l-.371-1.2A6.812,6.812,0,0,1,15715.693,13630.489Z" transform="translate(-15698.557 -13619.477)" fill="#fff" fill-rule="evenodd"/>
      <path id="Path_67575" data-name="Path 67575" d="M15248.882,11974.8l.374,2.638a7.452,7.452,0,0,0-1.761.321l-.785-2.535A10.076,10.076,0,0,1,15248.882,11974.8Z" transform="translate(-15232.217 -11967.104)" fill="#fff" fill-rule="evenodd"/>
      <path id="Path_67576" data-name="Path 67576" d="M14702.325,10048.9l.4,2.854a11.231,11.231,0,0,0-2.332.455l-.855-2.762A14.653,14.653,0,0,1,14702.325,10048.9Z" transform="translate(-14686.205 -10045.066)" fill="#fff" fill-rule="evenodd"/>
      <path id="Path_67577" data-name="Path 67577" d="M14775.562,13870.8l.595,1.146-.024.012a5.785,5.785,0,0,0-1.189.824l-.853-1.157A6.671,6.671,0,0,1,14775.562,13870.8Z" transform="translate(-14760.597 -13859.303)" fill="#fff" fill-rule="evenodd"/>
      <path id="Path_67578" data-name="Path 67578" d="M13842.053,12387.4l1.226,2.356a7.323,7.323,0,0,0-1.567.879l-1.561-2.119A9.849,9.849,0,0,1,13842.053,12387.4Z" transform="translate(-13828.634 -12378.88)" fill="#fff" fill-rule="evenodd"/>
      <path id="Path_67579" data-name="Path 67579" d="M12728.4,10644.1l1.342,2.583a10.989,10.989,0,0,0-2.045,1.192l-1.742-2.364A13.877,13.877,0,0,1,12728.4,10644.1Z" transform="translate(-12716.793 -10639.074)" fill="#fff" fill-rule="evenodd"/>
      <path id="Path_67580" data-name="Path 67580" d="M10123.59,10415.269l2.282-2.409,1.347,1.467c-.206.176-.408.356-.6.542a14.9,14.9,0,0,0-1.487,1.635Zm4.634.152,2,2.174c-.122.107-.242.215-.36.327a10.269,10.269,0,0,0-1.229,1.393l-2.332-1.871a13.37,13.37,0,0,1,1.4-1.549Q10127.954,10415.651,10128.224,10415.421Zm2.7,2.941,1.776,1.936c-.127.105-.252.215-.373.329a7.115,7.115,0,0,0-.853.971l-2.022-1.623a9.45,9.45,0,0,1,1.165-1.335C10130.719,10418.545,10130.82,10418.454,10130.925,10418.362Zm2.253,2.453.983,1.072a5.23,5.23,0,0,0-.9,1.142l-1.228-.985a6.375,6.375,0,0,1,.809-.933C10132.949,10421.01,10133.062,10420.91,10133.178,10420.815Z" transform="translate(-10119.939 -10408.298)" fill="#fff" fill-rule="evenodd"/>
      <path id="Path_67581" data-name="Path 67581" d="M13699.588,15142.488l1.367.792a5.068,5.068,0,0,0-.506,1.335l-1.539-.609A6,6,0,0,1,13699.588,15142.488Z" transform="translate(-13687.692 -15128.444)" fill="#fff" fill-rule="evenodd"/>
      <path id="Path_67582" data-name="Path 67582" d="M12273.209,14320.6l2.23,1.289a6.73,6.73,0,0,0-.734,1.607l-2.346-.93A9.008,9.008,0,0,1,12273.209,14320.6Z" transform="translate(-12264.161 -14308.203)" fill="#fff" fill-rule="evenodd"/>
      <path id="Path_67583" data-name="Path 67583" d="M10465.3,13304.8l2.6,1.506a9.757,9.757,0,0,0-.93,2.1l-2.831-1.121A12.749,12.749,0,0,1,10465.3,13304.8Z" transform="translate(-10459.768 -13294.439)" fill="#fff" fill-rule="evenodd"/>
      <path id="Path_67584" data-name="Path 67584" d="M8399.07,15021.049l.256-3.229,2.178.415a13.843,13.843,0,0,0-.254,2.638c0,.092,0,.182,0,.272Zm3.935-2.526,3,.571a9.775,9.775,0,0,0-.16,1.758c0,.167,0,.333.014.5l-3.066-.137c0-.112,0-.227,0-.34A12.529,12.529,0,0,1,8403,15018.522Zm4.049.772,2.443.467a6.529,6.529,0,0,0-.164,1.458c0,.094,0,.189.007.284l-2.408-.106c-.01-.182-.017-.362-.017-.546A8.806,8.806,0,0,1,8407.054,15019.295Zm3.154.6,1.617.309a4.962,4.962,0,0,0-.118,1.063c0,.114,0,.229.011.341l-1.651-.073c0-.1-.008-.212-.008-.316A5.908,5.908,0,0,1,8410.208,15019.9Z" transform="translate(-8399.07 -15004.026)" fill="#fff" fill-rule="evenodd"/>
      <path id="Path_67585" data-name="Path 67585" d="M13617.6,17009.094l1.619-.232a4.851,4.851,0,0,0,.358,1.371l-1.52.451A5.917,5.917,0,0,1,13617.6,17009.094Z" transform="translate(-13606.554 -16991.076)" fill="#fff" fill-rule="evenodd"/>
      <path id="Path_67586" data-name="Path 67586" d="M12177.4,17176.646l2.331-.336a6.5,6.5,0,0,0,.479,1.689l-2.176.645A8.806,8.806,0,0,1,12177.4,17176.646Z" transform="translate(-12169.403 -17158.189)" fill="#fff" fill-rule="evenodd"/>
      <path id="Path_67587" data-name="Path 67587" d="M10244.7,17419.844l3.028-.436a9.747,9.747,0,0,0,.667,2.15l-2.937.869A12.4,12.4,0,0,1,10244.7,17419.844Z" transform="translate(-10240.795 -17400.799)" fill="#fff" fill-rule="evenodd"/>
      <path id="Path_67588" data-name="Path 67588" d="M9345.307,17806.453l-2-2.629,2.167-1.121a14.8,14.8,0,0,0,1.755,2.357Zm1.516-4.445,2.694-1.395a10.284,10.284,0,0,0,1.388,1.793l-2.451,1.77A12.958,12.958,0,0,1,9346.822,17802.008Zm3.637-1.883,1.958-1.012a6.9,6.9,0,0,0,1.064,1.428l-1.722,1.244A9.268,9.268,0,0,1,9350.459,17800.125Zm2.594-1.34,1.38-.715c.05.1.1.2.162.3a4.563,4.563,0,0,0,.666.881l-1.2.867A6.188,6.188,0,0,1,9353.053,17798.785Z" transform="translate(-9341.312 -17778.703)" fill="#fff" fill-rule="evenodd"/>
      <path id="Path_67589" data-name="Path 67589" d="M14695.7,18523.068l.9-1.119a4.993,4.993,0,0,0,1.022.691c.071.037.144.072.215.1l-.687,1.2A6.694,6.694,0,0,1,14695.7,18523.068Z" transform="translate(-14682.372 -18501.131)" fill="#fff" fill-rule="evenodd"/>
      <path id="Path_67590" data-name="Path 67590" d="M13882.6,19355.436l1.281-1.6a7.277,7.277,0,0,0,1.542.93l-.988,1.725A9.8,9.8,0,0,1,13882.6,19355.436Z" transform="translate(-13870.993 -19331.354)" fill="#fff" fill-rule="evenodd"/>
      <path id="Path_67591" data-name="Path 67591" d="M12695.3,20555.729l1.863-2.318a10.809,10.809,0,0,0,1.972,1.145l-1.475,2.564A13.951,13.951,0,0,1,12695.3,20555.729Z" transform="translate(-12686.207 -20528.52)" fill="#fff" fill-rule="evenodd"/>
      <path id="Path_67592" data-name="Path 67592" d="M14124.68,19022.346l-3.359-.594.793-2.361a16.059,16.059,0,0,0,2.961.588Zm-2.1-4.336.936-2.781a11.063,11.063,0,0,0,2.279.426l-.482,2.889A14.456,14.456,0,0,1,14122.58,19018.01Zm1.262-3.75.623-1.852a7.487,7.487,0,0,0,1.816.332l-.318,1.906A10.1,10.1,0,0,1,14123.842,19014.26Zm.842-2.5.43-1.275a6.009,6.009,0,0,0,1.488.33l-.207,1.246A6.84,6.84,0,0,1,14124.684,19011.756Z" transform="translate(-14109.209 -18988.682)" fill="#fff" fill-rule="evenodd"/>
      <path id="Path_67593" data-name="Path 67593" d="M16895.992,19064.287l-3.281.9-.41-2.432a15.953,15.953,0,0,0,2.953-.648Zm-3.934-2.967-.484-2.885a11.284,11.284,0,0,0,2.273-.49l.941,2.779A14.416,14.416,0,0,1,16892.059,19061.32Zm-.652-3.891-.32-1.9a7.666,7.666,0,0,0,1.807-.406l.627,1.855A10.041,10.041,0,0,1,16891.406,19057.43Zm-.436-2.582-.2-1.2c.164,0,.326-.014.484-.027a4.781,4.781,0,0,0,1.051-.238l.365,1.086A6.728,6.728,0,0,1,16890.971,19054.848Z" transform="translate(-16872.797 -19031.494)" fill="#fff" fill-rule="evenodd"/>
      <path id="Path_67594" data-name="Path 67594" d="M14634.645,14321.862l2.411.1,0,4.017a2.088,2.088,0,0,1-2.3,1.23l-3.519.129a2.283,2.283,0,0,0,.425,1.54c1.447,1.773,3.515,1.5,5.311-.642l.055,1.959c-1.22,1.46-3.672,1.521-5.476.594a4.744,4.744,0,0,1,.285-8.5A6.389,6.389,0,0,1,14634.645,14321.862Zm.923,1.52c.027,4.058-1.595,1.772-4.572,2.73C14631.548,14323.735,14632.5,14323.768,14635.567,14323.382Z" transform="translate(-14615.866 -14309.461)" fill="#fff" fill-rule="evenodd"/>
    </g>
  </g>
</svg>
