<svg xmlns="http://www.w3.org/2000/svg" width="21.649" height="12.172" viewBox="0 0 21.649 12.172">
  <path id="Path_67990" data-name="Path 67990" d="M9.343,18.782l-1.932-.518L8.2,15.325a10.99,10.99,0,0,1-3.237-1.872L2.808,15.607,1.394,14.193l2.153-2.153A10.957,10.957,0,0,1,1.176,6.968L3.144,6.61a9,9,0,0,0,17.713,0l1.968.358a10.958,10.958,0,0,1-2.371,5.071l2.153,2.153-1.414,1.414-2.153-2.153A10.991,10.991,0,0,1,15.8,15.325l.787,2.939-1.932.518-.788-2.94a11.121,11.121,0,0,1-3.74,0Z" transform="translate(-1.176 -6.61)" fill="#7c35ab"/>
</svg>
