<svg id="noun-eye-closed-3000275" xmlns="http://www.w3.org/2000/svg" width="13.387" height="6.554" viewBox="0 0 13.387 6.554">
  <path id="Path_67235" data-name="Path 67235" d="M329.463,450.055a.56.56,0,0,1-1.121,0v-.747a.56.56,0,0,1,1.121,0Z" transform="translate(-322.27 -444.061)"/>
  <path id="Path_67236" data-name="Path 67236" d="M221.856,436.617a.56.56,0,0,1-1.053-.383l.256-.7a.56.56,0,1,1,1.053.383Z" transform="translate(-217.814 -430.87)"/>
  <path id="Path_67237" data-name="Path 67237" d="M427.369,436.617a.56.56,0,0,0,1.053-.383l-.256-.7a.56.56,0,1,0-1.053.383Z" transform="translate(-418.147 -430.87)"/>
  <path id="Path_67238" data-name="Path 67238" d="M515.918,391.8a.56.56,0,1,0,.918-.643l-.429-.612a.56.56,0,1,0-.918.643Z" transform="translate(-503.898 -387.312)"/>
  <path id="Path_67239" data-name="Path 67239" d="M124.413,391.8a.56.56,0,1,1-.918-.643l.429-.612a.56.56,0,1,1,.918.643Z" transform="translate(-123.259 -387.312)"/>
  <path id="Path_67240" data-name="Path 67240" d="M118.826,287.752c1,1.8,4,3.524,6.636,3.524s5.612-1.7,6.623-3.5a.507.507,0,1,0-.884-.5,7.428,7.428,0,0,1-5.739,2.985c-2.27,0-4.934-1.526-5.748-3a.507.507,0,1,0-.888.49Z" transform="translate(-118.763 -287)"/>
</svg>
