<svg xmlns="http://www.w3.org/2000/svg" xmlns:xlink="http://www.w3.org/1999/xlink" width="18.492" height="17.091" viewBox="0 0 18.492 17.091">
  <defs>
    <linearGradient id="linear-gradient" x1="0.5" x2="0.5" y2="1" gradientUnits="objectBoundingBox">
      <stop offset="0" stop-color="#528ffe"/>
      <stop offset="1" stop-color="#7c35ab"/>
    </linearGradient>
  </defs>
  <path id="Path_67540" data-name="Path 67540" d="M18.867,4.624a5.548,5.548,0,0,1,.218,7.615l-7.84,7.851L3.406,12.239a5.548,5.548,0,0,1,7.84-7.826,5.546,5.546,0,0,1,7.62.211ZM4.933,5.933a3.7,3.7,0,0,0-.178,5.04l6.49,6.5,6.49-6.5a3.7,3.7,0,0,0-5.22-5.215L8.631,9.645,7.323,8.338,9.935,5.724,9.859,5.66a3.7,3.7,0,0,0-4.926.273Z" transform="translate(-2 -3)" fill="url(#linear-gradient)"/>
</svg>
