<svg id="Component_41_2" data-name="Component 41 – 2" xmlns="http://www.w3.org/2000/svg" width="18.008" height="16.007" viewBox="0 0 18.008 16.007">
  <g id="Iconly_Bold_Filter" data-name="Iconly/Bold/Filter">
    <g id="Filter" transform="translate(0)">
      <path id="Filter-2" data-name="Filter" d="M11.815,12.965a3.1,3.1,0,1,1,3.1,3.042A3.07,3.07,0,0,1,11.815,12.965ZM1.357,14.335a1.334,1.334,0,1,1,0-2.668h5.92a1.334,1.334,0,1,1,0,2.668ZM0,3.042A3.07,3.07,0,0,1,3.1,0a3.069,3.069,0,0,1,3.1,3.042A3.07,3.07,0,0,1,3.1,6.085,3.07,3.07,0,0,1,0,3.042ZM10.731,4.376a1.334,1.334,0,1,1,0-2.667h5.92a1.334,1.334,0,1,1,0,2.667Z"/>
    </g>
  </g>
</svg>
