<svg id="Google" xmlns="http://www.w3.org/2000/svg" width="20.886" height="20.886" viewBox="0 0 20.886 20.886">
  <path id="Path_762" data-name="Path 762" d="M4.629,145.249,3.9,147.963l-2.657.056a10.461,10.461,0,0,1-.077-9.752h0l2.366.434,1.036,2.351a6.232,6.232,0,0,0,.059,4.2Z" transform="translate(0 -132.628)" fill="#e8c020"/>
  <path id="Path_763" data-name="Path 763" d="M271.659,208.176a10.439,10.439,0,0,1-3.723,10.095h0l-2.98-.152-.422-2.633a6.224,6.224,0,0,0,2.678-3.178h-5.584v-4.131h10.031Z" transform="translate(-250.955 -199.684)" fill="#6c8abf"/>
  <path id="Path_764" data-name="Path 764" d="M46.245,315.374h0a10.446,10.446,0,0,1-15.736-3.195l3.384-2.77a6.211,6.211,0,0,0,8.95,3.18Z" transform="translate(-29.264 -296.787)" fill="#31d238"/>
  <path id="Path_765" data-name="Path 765" d="M44.565,2.4l-3.383,2.77a6.21,6.21,0,0,0-9.155,3.252l-3.4-2.785h0A10.445,10.445,0,0,1,44.565,2.4Z" transform="translate(-27.456)" fill="red"/>
</svg>
