<svg xmlns="http://www.w3.org/2000/svg" xmlns:xlink="http://www.w3.org/1999/xlink" width="20.169" height="20.171" viewBox="0 0 20.169 20.171">
  <defs>
    <linearGradient id="linear-gradient" x1="0.5" x2="0.5" y2="1" gradientUnits="objectBoundingBox">
      <stop offset="0" stop-color="#528ffe"/>
      <stop offset="1" stop-color="#7c35ab"/>
    </linearGradient>
  </defs>
  <path id="home" d="M19.627,8.773h0L11.4.544a1.857,1.857,0,0,0-2.626,0L.547,8.767l-.008.008a1.856,1.856,0,0,0,1.236,3.164l.057,0H2.16V18A2.176,2.176,0,0,0,4.333,20.17H7.553a.591.591,0,0,0,.591-.591V14.832a.993.993,0,0,1,.992-.992h1.9a.993.993,0,0,1,.992.992v4.747a.591.591,0,0,0,.591.591h3.219A2.176,2.176,0,0,0,18.009,18V11.942h.3a1.857,1.857,0,0,0,1.314-3.169Zm0,0" transform="translate(0 0.001)" fill="url(#linear-gradient)"/>
</svg>
