<svg xmlns="http://www.w3.org/2000/svg" width="26.228" height="24.043" viewBox="0 0 26.228 24.043">
  <g id="image" transform="translate(0 -0.492)" opacity="0.2">
    <path id="Path_1188" data-name="Path 1188" d="M6.829,159.924a4.092,4.092,0,0,1-3.871-2.788l-.038-.126a3.989,3.989,0,0,1-.189-1.185v-7.451L.08,157.225a2.482,2.482,0,0,0,1.74,3.011l16.9,4.526a2.507,2.507,0,0,0,.63.081,2.437,2.437,0,0,0,2.362-1.787l.985-3.131Zm0,0" transform="translate(0 -140.307)"/>
    <path id="Path_1189" data-name="Path 1189" d="M151.506,68.864a2.186,2.186,0,1,0-2.186-2.186A2.188,2.188,0,0,0,151.506,68.864Zm0,0" transform="translate(-141.671 -60.721)"/>
    <path id="Path_1190" data-name="Path 1190" d="M104.445.492H88.052A2.736,2.736,0,0,0,85.32,3.224V15.246a2.736,2.736,0,0,0,2.732,2.732h16.393a2.736,2.736,0,0,0,2.732-2.732V3.224A2.736,2.736,0,0,0,104.445.492ZM88.052,2.678h16.393a.547.547,0,0,1,.546.546v7.758l-3.452-4.028a1.958,1.958,0,0,0-1.466-.672,1.91,1.91,0,0,0-1.46.69l-4.059,4.872-1.322-1.319a1.918,1.918,0,0,0-2.71,0L87.506,13.54V3.224A.547.547,0,0,1,88.052,2.678Zm0,0" transform="translate(-80.949 0)"/>
  </g>
</svg>
