<svg xmlns="http://www.w3.org/2000/svg" width="69.75" height="32.347" viewBox="0 0 69.75 32.347">
  <g id="Group_39953" data-name="Group 39953" transform="translate(-64.675 -17.231)">
    <g id="Group_39450" data-name="Group 39450" transform="translate(64.675 17.231)">
      <g id="Layer_x0020_1" transform="translate(0 0)">
        <path id="Path_67573" data-name="Path 67573" d="M16669.98,8137.31l3.273.238-.5,2.347a15.517,15.517,0,0,0-2.883-.356Zm2.475,3.952-.58,2.708a10.883,10.883,0,0,0-2.223-.28l.143-2.758A13.978,13.978,0,0,1,16672.455,8141.261Zm-.787,3.666-.535,2.494a7.317,7.317,0,0,0-1.66-.207l.131-2.549A9.774,9.774,0,0,1,16671.668,8144.927Zm-.676,3.141-.207.974-.5-.022h0c-.273,0-.586,0-.906.015l.061-1.16A6.552,6.552,0,0,1,16670.992,8148.067Z" transform="translate(-16652.57 -8137.31)" fill="#fff" fill-rule="evenodd"/>
        <path id="Path_67574" data-name="Path 67574" d="M15715.627,13630.489l.164,1.162c-.1.008-.2.017-.3.03a4.642,4.642,0,0,0-1.09.244l-.357-1.151A6.527,6.527,0,0,1,15715.627,13630.489Z" transform="translate(-15699.174 -13619.916)" fill="#fff" fill-rule="evenodd"/>
        <path id="Path_67575" data-name="Path 67575" d="M15248.8,11974.8l.359,2.532a7.165,7.165,0,0,0-1.69.309l-.755-2.434A9.658,9.658,0,0,1,15248.8,11974.8Z" transform="translate(-15232.795 -11967.411)" fill="#fff" fill-rule="evenodd"/>
        <path id="Path_67576" data-name="Path 67576" d="M14702.215,10048.9l.387,2.739a10.747,10.747,0,0,0-2.239.438l-.821-2.652A14.041,14.041,0,0,1,14702.215,10048.9Z" transform="translate(-14686.736 -10045.22)" fill="#fff" fill-rule="evenodd"/>
        <path id="Path_67577" data-name="Path 67577" d="M14775.5,13870.8l.57,1.1-.023.012a5.477,5.477,0,0,0-1.142.791l-.819-1.111A6.292,6.292,0,0,1,14775.5,13870.8Z" transform="translate(-14761.135 -13859.763)" fill="#fff" fill-rule="evenodd"/>
        <path id="Path_67578" data-name="Path 67578" d="M13841.978,12387.4l1.176,2.264a6.992,6.992,0,0,0-1.5.843l-1.5-2.034A9.52,9.52,0,0,1,13841.978,12387.4Z" transform="translate(-13829.093 -12379.219)" fill="#fff" fill-rule="evenodd"/>
        <path id="Path_67579" data-name="Path 67579" d="M12728.3,10644.1l1.288,2.48a10.475,10.475,0,0,0-1.963,1.145l-1.674-2.27A13.359,13.359,0,0,1,12728.3,10644.1Z" transform="translate(-12717.158 -10639.274)" fill="#fff" fill-rule="evenodd"/>
        <path id="Path_67580" data-name="Path 67580" d="M10123.59,10415.173l2.191-2.313,1.293,1.408c-.2.17-.392.343-.58.521a14.457,14.457,0,0,0-1.429,1.568Zm4.449.146,1.917,2.087c-.118.1-.232.207-.347.313a9.829,9.829,0,0,0-1.18,1.338l-2.239-1.8a12.816,12.816,0,0,1,1.343-1.487C10127.7,10415.618,10127.866,10415.466,10128.039,10415.319Zm2.594,2.824,1.706,1.857c-.122.1-.242.207-.358.316a6.729,6.729,0,0,0-.818.932l-1.942-1.559a9.041,9.041,0,0,1,1.119-1.28C10130.436,10418.319,10130.533,10418.231,10130.633,10418.144Zm2.163,2.355.944,1.028a5.033,5.033,0,0,0-.865,1.1l-1.179-.946a6.139,6.139,0,0,1,.776-.895C10132.577,10420.686,10132.685,10420.59,10132.8,10420.5Z" transform="translate(-10120.085 -10408.479)" fill="#fff" fill-rule="evenodd"/>
        <path id="Path_67581" data-name="Path 67581" d="M13699.561,15142.489l1.313.761a4.848,4.848,0,0,0-.486,1.281l-1.478-.585A5.73,5.73,0,0,1,13699.561,15142.489Z" transform="translate(-13688.14 -15129.005)" fill="#fff" fill-rule="evenodd"/>
        <path id="Path_67582" data-name="Path 67582" d="M12273.177,14320.6l2.14,1.238a6.416,6.416,0,0,0-.7,1.543l-2.252-.893A8.5,8.5,0,0,1,12273.177,14320.6Z" transform="translate(-12264.489 -14308.697)" fill="#fff" fill-rule="evenodd"/>
        <path id="Path_67583" data-name="Path 67583" d="M10465.25,13304.8l2.5,1.445a9.421,9.421,0,0,0-.893,2.018l-2.718-1.076A12.176,12.176,0,0,1,10465.25,13304.8Z" transform="translate(-10459.942 -13294.854)" fill="#fff" fill-rule="evenodd"/>
        <path id="Path_67584" data-name="Path 67584" d="M8399.07,15020.92l.246-3.1,2.091.4a13.317,13.317,0,0,0-.243,2.533c0,.088,0,.174,0,.261Zm3.778-2.425,2.877.549a9.263,9.263,0,0,0-.154,1.688c0,.16,0,.319.013.478l-2.944-.131c0-.107,0-.218,0-.326A11.948,11.948,0,0,1,8402.849,15018.5Zm3.888.742,2.345.447a6.3,6.3,0,0,0-.157,1.4c0,.091,0,.183.007.273l-2.312-.1c-.011-.175-.017-.349-.017-.524A8.469,8.469,0,0,1,8406.736,15019.237Zm3.027.577,1.553.3a4.877,4.877,0,0,0-.113,1.021c0,.109,0,.219.011.327l-1.585-.07c-.006-.1-.009-.2-.009-.3A5.678,5.678,0,0,1,8409.764,15019.814Z" transform="translate(-8399.07 -15004.576)" fill="#fff" fill-rule="evenodd"/>
        <path id="Path_67585" data-name="Path 67585" d="M13617.6,17009.086l1.555-.225a4.662,4.662,0,0,0,.344,1.316l-1.459.434A5.73,5.73,0,0,1,13617.6,17009.086Z" transform="translate(-13606.995 -16991.785)" fill="#fff" fill-rule="evenodd"/>
        <path id="Path_67586" data-name="Path 67586" d="M12177.4,17176.633l2.238-.322a6.23,6.23,0,0,0,.46,1.621l-2.089.621A8.427,8.427,0,0,1,12177.4,17176.633Z" transform="translate(-12169.723 -17158.91)" fill="#fff" fill-rule="evenodd"/>
        <path id="Path_67587" data-name="Path 67587" d="M10244.7,17419.828l2.908-.42a9.384,9.384,0,0,0,.641,2.066l-2.821.834A11.982,11.982,0,0,1,10244.7,17419.828Z" transform="translate(-10240.95 -17401.541)" fill="#fff" fill-rule="evenodd"/>
        <path id="Path_67588" data-name="Path 67588" d="M9345.228,17806.119l-1.917-2.523,2.081-1.076a14.106,14.106,0,0,0,1.686,2.264Zm1.455-4.268,2.587-1.34a9.863,9.863,0,0,0,1.332,1.721l-2.353,1.7A12.655,12.655,0,0,1,9346.683,17801.852Zm3.492-1.809,1.88-.973a6.639,6.639,0,0,0,1.021,1.373l-1.652,1.193A8.821,8.821,0,0,1,9350.175,17800.043Zm2.49-1.287,1.324-.686c.048.1.1.2.156.291a4.514,4.514,0,0,0,.64.848l-1.153.832A6.008,6.008,0,0,1,9352.665,17798.756Z" transform="translate(-9341.392 -17779.475)" fill="#fff" fill-rule="evenodd"/>
        <path id="Path_67589" data-name="Path 67589" d="M14695.7,18523.025l.864-1.076a4.794,4.794,0,0,0,.982.666c.068.035.138.068.207.1l-.659,1.148A6.411,6.411,0,0,1,14695.7,18523.025Z" transform="translate(-14682.903 -18501.959)" fill="#fff" fill-rule="evenodd"/>
        <path id="Path_67590" data-name="Path 67590" d="M13882.6,19355.371l1.23-1.531a7.039,7.039,0,0,0,1.48.893l-.949,1.656A9.422,9.422,0,0,1,13882.6,19355.371Z" transform="translate(-13871.456 -19332.25)" fill="#fff" fill-rule="evenodd"/>
        <path id="Path_67591" data-name="Path 67591" d="M12695.3,20555.637l1.791-2.227a10.265,10.265,0,0,0,1.893,1.1l-1.416,2.465A13.4,13.4,0,0,1,12695.3,20555.637Z" transform="translate(-12686.568 -20529.512)" fill="#fff" fill-rule="evenodd"/>
        <path id="Path_67592" data-name="Path 67592" d="M14124.547,19021.875l-3.227-.572.762-2.266a15.475,15.475,0,0,0,2.843.564Zm-2.017-4.166.9-2.67a10.611,10.611,0,0,0,2.188.41l-.462,2.773A13.806,13.806,0,0,1,14122.53,19017.709Zm1.211-3.6.6-1.777a7.209,7.209,0,0,0,1.744.318l-.306,1.83A9.687,9.687,0,0,1,14123.741,19014.109Zm.809-2.4.413-1.225a5.8,5.8,0,0,0,1.428.318l-.2,1.2A6.577,6.577,0,0,1,14124.55,19011.705Z" transform="translate(-14109.691 -18989.551)" fill="#fff" fill-rule="evenodd"/>
        <path id="Path_67593" data-name="Path 67593" d="M16895.785,19063.852l-3.152.863-.393-2.334a15.235,15.235,0,0,0,2.836-.623Zm-3.777-2.848-.465-2.77a10.883,10.883,0,0,0,2.184-.471l.9,2.67A13.934,13.934,0,0,1,16892.008,19061Zm-.625-3.734-.311-1.828a7.385,7.385,0,0,0,1.736-.391l.6,1.781A9.651,9.651,0,0,1,16891.383,19057.27Zm-.42-2.48-.193-1.154c.156,0,.313-.014.465-.027a4.614,4.614,0,0,0,1.008-.229l.352,1.043A6.546,6.546,0,0,1,16890.963,19054.789Z" transform="translate(-16873.514 -19032.367)" fill="#fff" fill-rule="evenodd"/>
        <path id="Path_67594" data-name="Path 67594" d="M14634.422,14321.862l2.315.1,0,3.856a2.006,2.006,0,0,1-2.21,1.181l-3.378.125a2.193,2.193,0,0,0,.407,1.478c1.391,1.7,3.375,1.438,5.1-.615l.052,1.881c-1.171,1.4-3.525,1.459-5.257.57a4.555,4.555,0,0,1,.274-8.161A6.113,6.113,0,0,1,14634.422,14321.862Zm.886,1.459c.026,3.9-1.53,1.7-4.39,2.622C14631.448,14323.661,14632.362,14323.692,14635.308,14323.321Z" transform="translate(-14616.392 -14309.955)" fill="#fff" fill-rule="evenodd"/>
      </g>
      <g id="Group_39449" data-name="Group 39449" transform="translate(21.75 4.174)">
        <text id="witn_x" data-name="witn  x" transform="translate(0 16)" fill="#fff" font-size="15" font-family="Poppins-SemiBold, Poppins" font-weight="600"><tspan x="0" y="0" xml:space="preserve">witn  x</tspan></text>
        <path id="Path_67595" data-name="Path 67595" d="M14633.438,14321.863l1.892.086,0,3.287a1.625,1.625,0,0,1-1.8,1.006l-2.761.107a1.933,1.933,0,0,0,.333,1.26c1.136,1.451,2.758,1.227,4.166-.525l.043,1.6c-.957,1.2-2.88,1.244-4.295.486a3.959,3.959,0,0,1,.224-6.957A4.823,4.823,0,0,1,14633.438,14321.863Zm.725,1.244c.021,3.32-1.251,1.449-3.587,2.234C14631.01,14323.4,14631.756,14323.424,14634.163,14323.107Z" transform="translate(-14596.628 -14314.044)" fill="#fff" stroke="#fff" strokeWidth="0.5" fill-rule="evenodd"/>
      </g>
    </g>
  </g>
</svg>
