<svg xmlns="http://www.w3.org/2000/svg" width="20.98" height="19.391" viewBox="0 0 20.98 19.391">
  <g id="Group_38741" data-name="Group 38741" transform="translate(0 -1.462)">
    <path id="Path_67549" data-name="Path 67549" d="M21.137,4.843a6.3,6.3,0,0,1,.248,8.64l-8.9,8.908L3.6,13.483a6.294,6.294,0,0,1,8.9-8.879,6.292,6.292,0,0,1,8.646.239ZM5.327,6.327a4.2,4.2,0,0,0-.2,5.718l7.364,7.375,7.364-7.374A4.2,4.2,0,0,0,13.931,6.13L9.523,10.539,8.039,9.056,11,6.09l-.086-.072a4.2,4.2,0,0,0-5.589.309Z" transform="translate(-2 -1.538)" fill="#707070"/>
  </g>
</svg>
