<svg xmlns="http://www.w3.org/2000/svg" width="20.078" height="15.01" viewBox="0 0 20.078 15.01">
  <g id="Group_38974" data-name="Group 38974" transform="translate(-9527.202 -2979)">
    <path id="Path_67296" data-name="Path 67296" d="M136.088,123.3H124.615a4.307,4.307,0,0,1-4.3-4.3v-6.4a4.307,4.307,0,0,1,4.3-4.3h11.473a4.307,4.307,0,0,1,4.3,4.3V119A4.307,4.307,0,0,1,136.088,123.3ZM124.615,109.25a3.35,3.35,0,0,0-3.346,3.346V119a3.35,3.35,0,0,0,3.346,3.346h11.473A3.35,3.35,0,0,0,139.434,119v-6.4a3.35,3.35,0,0,0-3.346-3.346Z" transform="translate(9406.891 2870.706)"/>
    <path id="Path_67297" data-name="Path 67297" d="M156.739,139.237a3.348,3.348,0,0,1-2.182-.809l-6.485-5.577a.478.478,0,0,1,.624-.725l6.485,5.577a2.376,2.376,0,0,0,3.117,0l6.485-5.577a.478.478,0,1,1,.624.725l-6.485,5.577a3.35,3.35,0,0,1-2.182.809Z" transform="translate(9380.503 2848.027)"/>
  </g>
</svg>
