<svg xmlns="http://www.w3.org/2000/svg" width="18.514" height="18.688" viewBox="0 0 18.514 18.688">
  <g id="Group_39044" data-name="Group 39044" transform="translate(-112.152 -808.75)">
    <path id="Path_67531" data-name="Path 67531" d="M177.523,98.725h-3.734a2.219,2.219,0,0,0-2.216,2.216v3.734a2.218,2.218,0,0,0,2.216,2.216h3.734a2.218,2.218,0,0,0,2.216-2.216v-3.734a2.218,2.218,0,0,0-2.216-2.216Zm1.329,5.949A1.33,1.33,0,0,1,177.523,106h-3.734a1.33,1.33,0,0,1-1.329-1.329v-3.733a1.329,1.329,0,0,1,1.329-1.329h3.734a1.329,1.329,0,0,1,1.329,1.329Zm-1.329,3.845h-3.734a2.218,2.218,0,0,0-2.216,2.216v3.733a2.218,2.218,0,0,0,2.216,2.216h3.734a2.218,2.218,0,0,0,2.216-2.216v-3.733a2.218,2.218,0,0,0-2.216-2.216Zm1.329,5.949a1.329,1.329,0,0,1-1.329,1.329h-3.734a1.329,1.329,0,0,1-1.329-1.329v-3.733a1.329,1.329,0,0,1,1.329-1.329h3.734a1.329,1.329,0,0,1,1.329,1.329Zm8.464-5.949h-3.733a2.218,2.218,0,0,0-2.216,2.216v3.733a2.218,2.218,0,0,0,2.216,2.216h3.733a2.218,2.218,0,0,0,2.216-2.216v-3.733a2.218,2.218,0,0,0-2.216-2.216Zm1.329,5.949a1.329,1.329,0,0,1-1.329,1.329h-3.733a1.33,1.33,0,0,1-1.329-1.329v-3.733a1.33,1.33,0,0,1,1.329-1.329h3.733a1.329,1.329,0,0,1,1.329,1.329Zm.916-10.521a2.347,2.347,0,0,0-.574-.919l-.014-.606a2.347,2.347,0,0,0,.532-.944.443.443,0,0,0-.044-.355l-.674-1.1a.443.443,0,0,0-.295-.2,2.386,2.386,0,0,0-1.081.037l-.532-.291a2.342,2.342,0,0,0-.553-.931A.466.466,0,0,0,186,98.5l-1.291.03h0a.443.443,0,0,0-.323.152,2.352,2.352,0,0,0-.51.957l-.517.315a2.354,2.354,0,0,0-1.083.013.444.444,0,0,0-.284.218l-.62,1.133a.443.443,0,0,0-.03.358,2.35,2.35,0,0,0,.573.919l.014.606h0a2.347,2.347,0,0,0-.532.944.443.443,0,0,0,.044.355l.672,1.1a.443.443,0,0,0,.294.2,2.353,2.353,0,0,0,1.083-.037l.532.291h0a2.354,2.354,0,0,0,.553.931.443.443,0,0,0,.321.137h.01l1.292-.03h0a.442.442,0,0,0,.323-.152,2.341,2.341,0,0,0,.51-.957l.517-.315a2.342,2.342,0,0,0,1.085-.013.444.444,0,0,0,.283-.218l.62-1.134a.443.443,0,0,0,.031-.358Zm-1.326.88a1.353,1.353,0,0,1-.423,0,.443.443,0,0,0-.519-.044l-.937.57h0a.443.443,0,0,0-.2.481,1.351,1.351,0,0,1-.193.376l-.869.02h0a1.353,1.353,0,0,1-.21-.366.443.443,0,0,0-.222-.471l-.963-.526a.443.443,0,0,0-.516.066,1.376,1.376,0,0,1-.422.021l-.452-.743h0a1.353,1.353,0,0,1,.213-.366.443.443,0,0,0,.3-.428l-.025-1.1h0a.443.443,0,0,0-.316-.415,1.341,1.341,0,0,1-.229-.355l.417-.762a1.374,1.374,0,0,1,.422,0,.443.443,0,0,0,.519.044l.937-.57a.443.443,0,0,0,.2-.481,1.333,1.333,0,0,1,.193-.376l.869-.02h0a1.353,1.353,0,0,1,.21.366.443.443,0,0,0,.222.471l.963.527h0a.443.443,0,0,0,.516-.066,1.346,1.346,0,0,1,.422-.02l.452.742h0a1.364,1.364,0,0,1-.212.366.443.443,0,0,0-.3.428l.025,1.1a.443.443,0,0,0,.316.415,1.359,1.359,0,0,1,.229.355Zm-2.022-3.418h0a1.594,1.594,0,1,0,.767.951,1.6,1.6,0,0,0-.767-.951Zm-.144,1.737h0a.7.7,0,1,1,.059-.539.706.706,0,0,1-.059.539Z" transform="translate(-59.171 710.504)" stroke="#000" stroke-width="0.5"/>
  </g>
</svg>
