<svg xmlns="http://www.w3.org/2000/svg" xmlns:xlink="http://www.w3.org/1999/xlink" width="22.992" height="26.058" viewBox="0 0 22.992 26.058">
  <defs>
    <linearGradient id="linear-gradient" x1="0.5" x2="0.5" y2="1" gradientUnits="objectBoundingBox">
      <stop offset="0" stop-color="#528ffe"/>
      <stop offset="1" stop-color="#7c35ab"/>
    </linearGradient>
  </defs>
  <g id="Group_39627" data-name="Group 39627" transform="translate(-50 -240.113)">
    <g id="Group_21" data-name="Group 21" transform="translate(50 244.98)">
      <g id="Iconly_Bold_Notification" data-name="Iconly/Bold/Notification" transform="translate(0 0)">
        <g id="Notification">
          <path id="Notification-2" data-name="Notification" d="M8.458,21.155a3.833,3.833,0,0,1-1.815-.776,1.643,1.643,0,0,1-.737-1.243c0-.534.49-.778.942-.883a27.485,27.485,0,0,1,4.287,0c.453.1.942.349.942.883a1.65,1.65,0,0,1-.735,1.244,3.855,3.855,0,0,1-1.816.775,4.214,4.214,0,0,1-.541.035A3.887,3.887,0,0,1,8.458,21.155Zm-4.47-4.47a4.8,4.8,0,0,1-3.073-1.5A3.828,3.828,0,0,1,0,12.668,3.563,3.563,0,0,1,.774,10.22,4.025,4.025,0,0,0,1.9,7.2V6.75A5.966,5.966,0,0,1,3.26,2.661,7.5,7.5,0,0,1,8.96,0h.094a7.461,7.461,0,0,1,5.793,2.781A5.874,5.874,0,0,1,16.113,6.75V7.2a4.12,4.12,0,0,0,1.126,3.019,3.563,3.563,0,0,1,.774,2.448,3.827,3.827,0,0,1-.914,2.519,4.81,4.81,0,0,1-3.073,1.5c-1.665.141-3.331.261-5.019.261A44.139,44.139,0,0,1,3.988,16.685Z" fill="url(#linear-gradient)"/>
        </g>
      </g>
    </g>
    <g id="Ellipse_6" data-name="Ellipse 6" transform="translate(58.75 240.113)" fill="#f05e78" stroke="#fff" stroke-width="2">
      <circle cx="7.121" cy="7.121" r="7.121" stroke="none"/>
      <circle cx="7.121" cy="7.121" r="6.121" fill="none"/>
    </g>
    <path id="Path_57" data-name="Path 57" d="M3.444-19.754a1,1,0,0,1,.811.324,1.052,1.052,0,0,1,.305.725c0,.563-.41.954-1.173.954H3.4a1.279,1.279,0,0,1-.687-.229,1.275,1.275,0,0,1-.486-.534l-.858.458A2.167,2.167,0,0,0,3.4-16.8a2.432,2.432,0,0,0,1.564-.486,1.641,1.641,0,0,0,.61-1.345,1.947,1.947,0,0,0-.277-.992,1.383,1.383,0,0,0-.725-.639,1.468,1.468,0,0,0,.753-1.23,1.623,1.623,0,0,0-.5-1.183,1.865,1.865,0,0,0-1.259-.544,1.953,1.953,0,0,0-1.831.916l.744.544a.976.976,0,0,1,.877-.486,1.065,1.065,0,0,1,.429.067.684.684,0,0,1,.458.811.8.8,0,0,1-.8.706h-.7v.906Z" transform="translate(62.441 267.464)" fill="#fff"/>
  </g>
</svg>
