<svg xmlns="http://www.w3.org/2000/svg" width="22.992" height="26.058" viewBox="0 0 22.992 26.058">
  <g id="Group_39627" data-name="Group 39627" transform="translate(-50 -240.113)">
    <g id="Group_21" data-name="Group 21" transform="translate(50 244.98)">
      <g id="Iconly_Bold_Notification" data-name="Iconly/Bold/Notification" transform="translate(0 0)">
        <g id="Notification">
          <path id="Notification-2" data-name="Notification" d="M8.458,21.155a3.835,3.835,0,0,1-1.816-.776,1.644,1.644,0,0,1-.737-1.243c0-.534.489-.778.942-.883a27.5,27.5,0,0,1,4.287,0c.453.1.942.349.942.883a1.646,1.646,0,0,1-.736,1.243,3.852,3.852,0,0,1-1.815.775,4.234,4.234,0,0,1-.542.035A3.885,3.885,0,0,1,8.458,21.155Zm-4.47-4.47a4.8,4.8,0,0,1-3.072-1.5A3.83,3.83,0,0,1,0,12.668,3.569,3.569,0,0,1,.774,10.22,4.023,4.023,0,0,0,1.9,7.2V6.75A5.96,5.96,0,0,1,3.26,2.661,7.494,7.494,0,0,1,8.959,0h.1a7.461,7.461,0,0,1,5.792,2.781A5.876,5.876,0,0,1,16.113,6.75V7.2a4.12,4.12,0,0,0,1.125,3.019,3.564,3.564,0,0,1,.774,2.448,3.829,3.829,0,0,1-.914,2.52,4.809,4.809,0,0,1-3.072,1.5c-1.665.141-3.331.261-5.019.261A44.171,44.171,0,0,1,3.988,16.685Z" fill="#aeaeae"/>
        </g>
      </g>
    </g>
    <g id="Ellipse_6" data-name="Ellipse 6" transform="translate(58.75 240.113)" fill="#f05e78" stroke="#fff" stroke-width="2">
      <circle cx="7.121" cy="7.121" r="7.121" stroke="none"/>
      <circle cx="7.121" cy="7.121" r="6.121" fill="none"/>
    </g>
    <path id="Path_57" data-name="Path 57" d="M3.444-19.754a1,1,0,0,1,.811.324,1.052,1.052,0,0,1,.305.725c0,.563-.41.954-1.173.954H3.4a1.279,1.279,0,0,1-.687-.229,1.275,1.275,0,0,1-.486-.534l-.858.458A2.167,2.167,0,0,0,3.4-16.8a2.432,2.432,0,0,0,1.564-.486,1.641,1.641,0,0,0,.61-1.345,1.947,1.947,0,0,0-.277-.992,1.383,1.383,0,0,0-.725-.639,1.468,1.468,0,0,0,.753-1.23,1.623,1.623,0,0,0-.5-1.183,1.865,1.865,0,0,0-1.259-.544,1.953,1.953,0,0,0-1.831.916l.744.544a.976.976,0,0,1,.877-.486,1.065,1.065,0,0,1,.429.067.684.684,0,0,1,.458.811.8.8,0,0,1-.8.706h-.7v.906Z" transform="translate(62.441 267.464)" fill="#fff"/>
  </g>
</svg>
