<svg xmlns="http://www.w3.org/2000/svg" width="22.834" height="21.883" viewBox="0 0 22.834 21.883">
  <g id="paper-plane" transform="translate(0 0)">
    <path id="Path_67210" data-name="Path 67210" d="M8.75,17.612v4.413a.713.713,0,0,0,1.288.422l2.581-3.513Z" transform="translate(-0.425 -0.856)" fill="#fff"/>
    <path id="Path_67211" data-name="Path 67211" d="M22.534.132A.714.714,0,0,0,21.79.081L.383,11.26a.714.714,0,0,0,.1,1.308L6.433,14.6,19.107,3.766,9.3,15.581l9.974,3.409a.73.73,0,0,0,.23.038.713.713,0,0,0,.706-.608L22.826.819a.715.715,0,0,0-.292-.687Z" transform="translate(0)" fill="#fff"/>
  </g>
</svg>
