<svg xmlns="http://www.w3.org/2000/svg" width="21.022" height="21" viewBox="0 0 21.022 21">
  <g id="pencil" transform="translate(0 -0.246)">
    <path id="Path_67208" data-name="Path 67208" d="M12.982,82.473,1.415,94.04a.461.461,0,0,0-.12.211L.013,99.4a.455.455,0,0,0,.442.566.452.452,0,0,0,.11-.014l5.146-1.282a.455.455,0,0,0,.211-.12L17.489,86.98Zm0,0" transform="translate(0 -78.716)"/>
    <path id="Path_67209" data-name="Path 67209" d="M340.413,2.179,339.125.892a2.332,2.332,0,0,0-3.22,0l-1.577,1.577,4.507,4.507L340.413,5.4a2.277,2.277,0,0,0,0-3.22Zm0,0" transform="translate(-320.058 0)"/>
  </g>
</svg>
