<svg xmlns="http://www.w3.org/2000/svg" width="20.716" height="14.501" viewBox="0 0 20.716 14.501">
  <path id="Icon_awesome-user-friends" data-name="Icon awesome-user-friends" d="M6.215,9.5A3.625,3.625,0,1,0,2.59,5.875,3.624,3.624,0,0,0,6.215,9.5ZM8.7,10.537H8.432a5.005,5.005,0,0,1-4.435,0H3.729A3.73,3.73,0,0,0,0,14.265V15.2a1.554,1.554,0,0,0,1.554,1.554h9.322A1.554,1.554,0,0,0,12.43,15.2v-.932A3.73,3.73,0,0,0,8.7,10.537ZM15.537,9.5A3.107,3.107,0,1,0,12.43,6.393,3.108,3.108,0,0,0,15.537,9.5Zm1.554,1.036h-.123a4.082,4.082,0,0,1-2.861,0h-.123a3.6,3.6,0,0,0-1.8.5,4.737,4.737,0,0,1,1.285,3.23v1.243c0,.071-.016.139-.019.207h5.716a1.554,1.554,0,0,0,1.554-1.554A3.624,3.624,0,0,0,17.091,10.537Z" transform="translate(0 -2.25)" fill="#707070"/>
</svg>
