<svg xmlns="http://www.w3.org/2000/svg" width="15.677" height="10.974" viewBox="0 0 15.677 10.974">
  <path id="Icon_awesome-user-friends" data-name="Icon awesome-user-friends" d="M4.7,7.737A2.744,2.744,0,1,0,1.96,4.994,2.742,2.742,0,0,0,4.7,7.737Zm1.881.784h-.2a3.788,3.788,0,0,1-3.356,0h-.2A2.823,2.823,0,0,0,0,11.343v.705a1.176,1.176,0,0,0,1.176,1.176H8.231a1.176,1.176,0,0,0,1.176-1.176v-.705A2.823,2.823,0,0,0,6.584,8.521Zm5.174-.784A2.352,2.352,0,1,0,9.406,5.385,2.352,2.352,0,0,0,11.758,7.737Zm1.176.784h-.093a3.089,3.089,0,0,1-2.165,0h-.093A2.721,2.721,0,0,0,9.218,8.9a3.585,3.585,0,0,1,.972,2.445v.941c0,.054-.012.105-.015.157H14.5a1.176,1.176,0,0,0,1.176-1.176,2.742,2.742,0,0,0-2.744-2.744Z" transform="translate(0 -2.25)"/>
</svg>
