<svg id="Group_39257" data-name="Group 39257" xmlns="http://www.w3.org/2000/svg" xmlns:xlink="http://www.w3.org/1999/xlink" width="140" height="41.178" viewBox="0 0 140 41.178">
  <defs>
    <linearGradient id="linear-gradient" x1="0.915" y1="6.617" x2="-0.384" y2="5.947" gradientUnits="objectBoundingBox">
      <stop offset="0" stop-color="#00a0ff"/>
      <stop offset="0.01" stop-color="#00a1ff"/>
      <stop offset="0.26" stop-color="#00beff"/>
      <stop offset="0.51" stop-color="#00d2ff"/>
      <stop offset="0.76" stop-color="#00dfff"/>
      <stop offset="1" stop-color="#00e3ff"/>
    </linearGradient>
    <linearGradient id="linear-gradient-2" x1="1.077" y1="17.089" x2="-1.306" y2="17.089" gradientUnits="objectBoundingBox">
      <stop offset="0" stop-color="#ffe000"/>
      <stop offset="0.41" stop-color="#ffbd00"/>
      <stop offset="0.78" stop-color="orange"/>
      <stop offset="1" stop-color="#ff9c00"/>
    </linearGradient>
    <linearGradient id="linear-gradient-3" x1="0.862" y1="10.858" x2="-0.501" y2="9.09" gradientUnits="objectBoundingBox">
      <stop offset="0" stop-color="#ff3a44"/>
      <stop offset="1" stop-color="#c31162"/>
    </linearGradient>
    <linearGradient id="linear-gradient-4" x1="-0.188" y1="13.578" x2="0.421" y2="12.788" gradientUnits="objectBoundingBox">
      <stop offset="0" stop-color="#32a071"/>
      <stop offset="0.07" stop-color="#2da771"/>
      <stop offset="0.48" stop-color="#15cf74"/>
      <stop offset="0.8" stop-color="#06e775"/>
      <stop offset="1" stop-color="#00f076"/>
    </linearGradient>
  </defs>
  <rect id="Rectangle_17474" data-name="Rectangle 17474" width="140" height="41" rx="5"/>
  <path id="Path_67830" data-name="Path 67830" d="M143.827,10.824a4.324,4.324,0,0,1,4.324,4.324V46.03a4.324,4.324,0,0,1-4.324,4.324H15.147a4.324,4.324,0,0,1-4.324-4.324V15.147a4.324,4.324,0,0,1,4.324-4.324h128.68m0-.824H15.147A5.147,5.147,0,0,0,10,15.147V46.03a5.147,5.147,0,0,0,5.147,5.147h128.68a5.147,5.147,0,0,0,5.147-5.147V15.147A5.147,5.147,0,0,0,143.827,10Z" transform="translate(-10 -10)" fill="#a6a6a6"/>
  <path id="Path_67831" data-name="Path 67831" d="M57.6,20.34a2.79,2.79,0,0,1-.772,2.059,3,3,0,0,1-2.265.916,3.243,3.243,0,0,1-2.275-5.528,3.088,3.088,0,0,1,2.275-.926,3.191,3.191,0,0,1,1.266.257,2.543,2.543,0,0,1,.968.69l-.546.546a2.059,2.059,0,0,0-1.688-.731,2.388,2.388,0,0,0-2.4,2.471,2.429,2.429,0,0,0,4.118,1.781,1.946,1.946,0,0,0,.515-1.256H54.562v-.741h3a2.614,2.614,0,0,1,.041.463Zm4.715-2.574H59.534v1.956h2.532v.741H59.534v1.956h2.779v.762h-3.6V17h3.6Zm3.377,5.415H64.9V17.766H63.168V17h4.293v.762H65.69Zm4.8,0V17h.793v6.177Zm4.313,0h-.793V17.766H72.279V17H76.52v.762H74.8Zm9.759-.8a3.212,3.212,0,0,1-4.53,0,3.335,3.335,0,0,1,0-4.581,3.191,3.191,0,0,1,4.53,0,3.325,3.325,0,0,1,0,4.581Zm-3.943-.515a2.378,2.378,0,0,0,3.356,0,2.635,2.635,0,0,0,0-3.541,2.378,2.378,0,0,0-3.356,0A2.635,2.635,0,0,0,80.617,21.863Zm5.971,1.318V17h.968l3.006,4.807V17h.793v6.177h-.824l-3.14-5.034v5.034Z" transform="translate(-8.783 -9.798)" fill="#fff" stroke="#fff" stroke-width="0.2"/>
  <path id="Path_67832" data-name="Path 67832" d="M78.943,31.89a4.375,4.375,0,1,0,4.4,4.375,4.313,4.313,0,0,0-4.4-4.375Zm0,7.031a2.656,2.656,0,1,1,2.471-2.656,2.532,2.532,0,0,1-2.471,2.656ZM69.359,31.89a4.375,4.375,0,1,0,4.385,4.375,4.313,4.313,0,0,0-4.4-4.375Zm0,7.031a2.656,2.656,0,1,1,2.46-2.656,2.532,2.532,0,0,1-2.471,2.656ZM57.942,33.239v1.853h4.447a3.881,3.881,0,0,1-1.029,2.337,4.55,4.55,0,0,1-3.428,1.359,4.941,4.941,0,0,1,0-9.883A4.735,4.735,0,0,1,61.3,30.233l1.307-1.307A6.475,6.475,0,0,0,57.942,27a6.8,6.8,0,1,0,0,13.6,6.009,6.009,0,0,0,6.352-6.249,6.042,6.042,0,0,0-.1-1.163Zm46.644,1.441a4.045,4.045,0,0,0-7.865,1.585,4.282,4.282,0,0,0,4.344,4.375A4.355,4.355,0,0,0,104.71,38.7l-1.493-1.029a2.5,2.5,0,0,1-2.152,1.215,2.224,2.224,0,0,1-2.121-1.328l5.858-2.419Zm-5.971,1.462a2.4,2.4,0,0,1,2.285-2.553,1.7,1.7,0,0,1,1.627.927Zm-4.756,4.241h1.925V27.515H93.859Zm-3.15-7.515h-.072a3.088,3.088,0,0,0-2.306-1.029,4.385,4.385,0,0,0,0,8.761,2.985,2.985,0,0,0,2.306-1.029H90.7V40.2c0,1.678-.9,2.574-2.337,2.574a2.419,2.419,0,0,1-2.2-1.554l-1.678.7A4.169,4.169,0,0,0,88.362,44.5c2.254,0,4.118-1.328,4.118-4.56V32.147H90.709Zm-2.2,6.053a2.666,2.666,0,0,1,0-5.312,2.471,2.471,0,0,1,2.337,2.656A2.45,2.45,0,0,1,88.5,38.921Zm25.1-11.406H109V40.383h1.925V35.5h2.687a4,4,0,1,0,0-7.988Zm0,6.177h-2.687V29.306h2.728a2.208,2.208,0,0,1,0,4.416Zm11.869-1.853a3.6,3.6,0,0,0-3.428,1.966l1.709.71a1.822,1.822,0,0,1,1.75-.947,1.853,1.853,0,0,1,2.059,1.657v.134a4.252,4.252,0,0,0-2.007-.494c-1.843,0-3.706,1.029-3.706,2.893a2.975,2.975,0,0,0,3.191,2.831,2.707,2.707,0,0,0,2.471-1.235h.062v1.029h1.853V35.431c0-2.254-1.709-3.562-3.9-3.562Zm-.237,7.052c-.628,0-1.5-.319-1.5-1.091,0-1.029,1.091-1.369,2.059-1.369a3.418,3.418,0,0,1,1.75.432,2.327,2.327,0,0,1-2.254,2.059Zm10.943-6.743-2.2,5.58h-.062l-2.285-5.58h-2.059l3.428,7.8-1.956,4.334h2.007l5.271-12.137Zm-17.3,8.236H120.8V27.515h-1.925Z" transform="translate(-8.797 -9.5)" fill="#fff"/>
  <path id="Path_67833" data-name="Path 67833" d="M20.454,17.542a2.059,2.059,0,0,0-.474,1.441V41.755a2.059,2.059,0,0,0,.474,1.441l.072.072L33.28,30.523v-.3L20.526,17.47Z" transform="translate(-9.706 -9.78)" fill="url(#linear-gradient)"/>
  <path id="Path_67834" data-name="Path 67834" d="M37.121,34.532,32.9,30.28v-.3l4.221-4.262.093.051,5.055,2.872c1.441.813,1.441,2.152,0,2.975l-5.034,2.862Z" transform="translate(-9.326 -9.537)" fill="url(#linear-gradient-2)"/>
  <path id="Path_67835" data-name="Path 67835" d="M37.611,34.344,33.267,30,20.44,42.827a1.678,1.678,0,0,0,2.141.062l15.04-8.544" transform="translate(-9.693 -9.411)" fill="url(#linear-gradient-3)"/>
  <path id="Path_67836" data-name="Path 67836" d="M37.611,26.035,22.571,17.49a1.678,1.678,0,0,0-2.141.062L33.267,30.379Z" transform="translate(-9.693 -9.79)" fill="url(#linear-gradient-4)"/>
  <path id="Path_67837" data-name="Path 67837" d="M37.488,34.13,22.571,42.623a1.719,1.719,0,0,1-2.059,0l-.072.072.072.072a1.709,1.709,0,0,0,2.059,0l15.04-8.544Z" transform="translate(-9.693 -9.29)" opacity="0.2"/>
  <path id="Path_67838" data-name="Path 67838" d="M20.454,42.683a2.059,2.059,0,0,1-.474-1.441V41.4a2.059,2.059,0,0,0,.474,1.441l.072-.072ZM42.648,31.338,37.5,34.252l.093.093,5.055-2.862A1.8,1.8,0,0,0,43.678,30a1.915,1.915,0,0,1-1.029,1.338Z" transform="translate(-9.706 -9.411)" opacity="0.12"/>
  <path id="Path_67839" data-name="Path 67839" d="M22.585,17.634,42.649,29.04a1.915,1.915,0,0,1,1.029,1.338A1.8,1.8,0,0,0,42.649,28.9L22.585,17.49c-1.441-.813-2.615-.134-2.615,1.513v.154c.031-1.657,1.184-2.337,2.615-1.524Z" transform="translate(-9.706 -9.79)" fill="#fff" opacity="0.25"/>
</svg>
