<svg xmlns="http://www.w3.org/2000/svg" width="41" height="41" viewBox="0 0 41 41">
  <g id="Group_38657" data-name="Group 38657" transform="translate(-278.5 -934.874)">
    <path id="Path_67106" data-name="Path 67106" d="M20.5,0A20.5,20.5,0,1,1,0,20.5,20.5,20.5,0,0,1,20.5,0Z" transform="translate(278.5 934.874)"/>
    <path id="Icon_ionic-ios-add" data-name="Icon ionic-ios-add" d="M25.91,16.875H19.125V10.09a1.125,1.125,0,0,0-2.25,0v6.785H10.09a1.125,1.125,0,0,0,0,2.25h6.785V25.91a1.125,1.125,0,0,0,2.25,0V19.125H25.91a1.125,1.125,0,0,0,0-2.25Z" transform="translate(280.535 936.909)" fill="#fff"/>
  </g>
</svg>
