<svg xmlns="http://www.w3.org/2000/svg" xmlns:xlink="http://www.w3.org/1999/xlink" width="20" height="20" viewBox="0 0 20 20">
  <defs>
    <linearGradient id="linear-gradient" x1="0.5" x2="0.5" y2="1" gradientUnits="objectBoundingBox">
      <stop offset="0" stop-color="#528ffe"/>
      <stop offset="1" stop-color="#7c35ab"/>
    </linearGradient>
  </defs>
  <path id="Path_67557" data-name="Path 67557" d="M21,21H13V6a3,3,0,0,1,3-3h5a1,1,0,0,1,1,1V20A1,1,0,0,1,21,21ZM11,21H3a1,1,0,0,1-1-1V4A1,1,0,0,1,3,3H8a3,3,0,0,1,3,3Zm0,0h2v2H11Z" transform="translate(-2 -3)" fill="url(#linear-gradient)"/>
</svg>
