<svg xmlns="http://www.w3.org/2000/svg" width="102.709" height="102.708" viewBox="0 0 102.709 102.708">
  <path id="Path_67294" data-name="Path 67294" d="M148.394,78.4v34.235h34.235V78.4H148.394Zm38.515,0V84.1h5.705v5.705h5.705V78.4H186.908ZM198.321,89.81v5.705h5.705V89.81ZM206.88,78.4V92.663h5.705V78.4Zm9.985,0v34.235H251.1V78.4ZM154.1,84.1h22.824v22.824H154.1Zm68.471,0H245.4v22.824H222.571Zm-64.191,4.28v14.265h14.265V88.383Zm68.471,0v14.265h14.265V88.383Zm-39.941,4.28v9.985H202.6V96.943h-9.985v-4.28Zm18.544,2.853v5.705h5.705V95.516Zm-18.544,12.838v5.705h5.705v-5.705Zm5.705,5.705v5.705h5.705v14.265h5.705V108.352H198.32v5.705Zm14.265-5.705v5.705h5.705v-5.705Zm-29.956,8.559v5.705h5.705v-5.705Zm5.705,5.705v5.705h-5.705v5.705h11.412V122.617Zm29.956-5.705v5.705h5.705v-5.705Zm-64.191,1.427v5.705h15.692v4.28h-4.28v5.705H174.07v-5.705h-4.28V118.34Zm79.883,0v5.705h-5.705v5.705h18.544V132.6h4.28v5.705H251.1v-19.97h-5.705v5.705h-2.853v-5.705Zm-38.515,2.853V126.9h5.705v-5.705Zm17.117,2.853v12.838h-5.705v5.705h5.705v-4.28H218.29v-8.559h-5.705v-5.705Zm-58.486,4.28V142.59H154.1v-4.28h4.28V132.6H154.1v-4.28ZM224,134.03v14.265h-5.705V142.59h-5.705v8.559h-8.559V148.3h-5.705V136.884h-5.705v5.705H186.91v5.705h5.705V154h5.705v2.853h4.28v5.705h5.705v-5.705h9.985v5.705H224v-5.705H229.7v2.853h5.705v2.853h5.705V148.294h-5.705v-5.705H229.7v-8.559Zm17.117,14.265H251.1V142.59h-9.985Zm0,14.265v5.705h5.705V162.56Zm-8.559-28.53v5.705h5.705V134.03Zm-61.338,1.427v2.853h-8.559v5.705h19.97V138.31h-5.705v-2.853Zm-22.824,11.412V181.1h34.235V146.869Zm5.705,5.705h22.824V175.4H154.1Zm4.28,4.28v14.265h14.265V156.854Zm28.53,5.705V181.1h5.705v-7.132h5.705V162.56H186.905Zm24.25,0v8.559H208.3v-2.853H202.6v8.559h-5.705v4.28H214.01V171.12h2.853v-8.559Zm9.985,1.427v5.705h5.705v-5.705Zm11.412,2.853v5.705h5.705v-5.705Zm-15.692,5.705v5.705h5.705V181.1h8.559V175.4h-5.705v-2.853Zm28.53,0v5.705H251.1v-5.705Zm-9.985,2.853V181.1h5.705V175.4Z" transform="translate(-148.392 -78.397)"/>
</svg>
