<svg xmlns="http://www.w3.org/2000/svg" width="15.838" height="20.457" viewBox="0 0 15.838 20.457">
  <path id="noun-report-4530395" d="M210.662,105H210v19.8a.66.66,0,1,0,1.32,0v-10.4h4.037a.582.582,0,0,1,.582.582,1.9,1.9,0,0,0,1.9,1.9h8V107.64h-5.279a.66.66,0,0,1-.66-.66,1.98,1.98,0,0,0-1.98-1.98Zm.66,8.074h4.037a1.9,1.9,0,0,1,1.9,1.9.582.582,0,0,0,.582.582h6.677v-6.6h-3.959a1.98,1.98,0,0,1-1.98-1.98.66.66,0,0,0-.66-.66h-6.6Z" transform="translate(-210.002 -105)" fill="#7c35ab" fill-rule="evenodd"/>
</svg>
