<svg id="Component_26_3" data-name="Component 26 – 3" xmlns="http://www.w3.org/2000/svg" width="16.288" height="18.206" viewBox="0 0 16.288 18.206">
  <path id="Path_67234" data-name="Path 67234" d="M119.9,25.466l-2.048-2.181,5.689.19-.474,5.367-1.8-1.934a8.147,8.147,0,0,1-12-7.7l1.878.133a6.255,6.255,0,0,0,8.762,6.125Zm-.076-13.5a8.131,8.131,0,0,1,5.689,8.306l-1.878-.133a6.265,6.265,0,0,0-8.781-6.125l2.048,2.181L111.209,16l.474-5.367L113.5,12.57a8.147,8.147,0,0,1,3.869-.986,8.336,8.336,0,0,1,2.446.379Z" transform="translate(-109.238 -10.636)"/>
</svg>
