<svg xmlns="http://www.w3.org/2000/svg" width="82.693" height="13.975" viewBox="0 0 82.693 13.975">
  <g id="Group_40073" data-name="Group 40073" transform="translate(-105 -8539)">
    <path id="Path_100201" data-name="Path 100201" d="M7.935,11.933l-4.54,2.542,1.014-5.1L.588,5.838l5.167-.613L7.935.5l2.179,4.725,5.167.613L11.461,9.37l1.014,5.1Z" transform="translate(104.412 8538.5)" fill="#7c35ab"/>
    <path id="Path_100202" data-name="Path 100202" d="M7.935,11.933l-4.54,2.542,1.014-5.1L.588,5.838l5.167-.613L7.935.5l2.179,4.725,5.167.613L11.461,9.37l1.014,5.1Z" transform="translate(121.412 8538.5)" fill="#7c35ab"/>
    <path id="Path_100203" data-name="Path 100203" d="M7.935,11.933l-4.54,2.542,1.014-5.1L.588,5.838l5.167-.613L7.935.5l2.179,4.725,5.167.613L11.461,9.37l1.014,5.1Z" transform="translate(138.412 8538.5)" fill="#7c35ab"/>
    <path id="Path_100204" data-name="Path 100204" d="M7.935,11.933l-4.54,2.542,1.014-5.1L.588,5.838l5.167-.613L7.935.5l2.179,4.725,5.167.613L11.461,9.37l1.014,5.1Z" transform="translate(155.412 8538.5)" fill="#7c35ab"/>
    <path id="Path_100205" data-name="Path 100205" d="M7.935,11.933l-4.54,2.542,1.014-5.1L.588,5.838l5.167-.613L7.935.5l2.179,4.725,5.167.613L11.461,9.37l1.014,5.1Z" transform="translate(172.412 8538.5)" fill="#7c35ab"/>
  </g>
</svg>
