<svg xmlns="http://www.w3.org/2000/svg" xmlns:xlink="http://www.w3.org/1999/xlink" width="17.76" height="17.651" viewBox="0 0 17.76 17.651">
  <defs>
    <linearGradient id="linear-gradient" x1="0.5" x2="0.5" y2="1" gradientUnits="objectBoundingBox">
      <stop offset="0" stop-color="#528ffe"/>
      <stop offset="1" stop-color="#7c35ab"/>
    </linearGradient>
    <filter id="Path_67534">
      <feOffset dy="3" input="SourceAlpha"/>
      <feGaussianBlur stdDeviation="3" result="blur"/>
      <feFlood flood-opacity="0.161" result="color"/>
      <feComposite operator="out" in="SourceGraphic" in2="blur"/>
      <feComposite operator="in" in="color"/>
      <feComposite operator="in" in2="SourceGraphic"/>
    </filter>
  </defs>
  <g id="Group_39049" data-name="Group 39049" transform="translate(-1182.568 -3105.75)">
    <g data-type="innerShadowGroup">
      <path id="Path_67534-2" data-name="Path 67534" d="M168.7,91.786a2.531,2.531,0,0,1,2.347,1.165c.023.033.046.066.071.1a1.051,1.051,0,0,0,1.009.35c.136-.025.271-.058.408-.083a3.127,3.127,0,0,1,3.105,3.106c-.025.136-.058.271-.083.408-.108.622.32.986.773,1.3l.085.062c1.386,1.068.889,3.684-.386,4.552-.037.025-.073.051-.108.078-.463.361-.388.893-.286,1.386.007.034.013.068.019.1.217,1.4-1.8,3.3-3.16,3.04-.114-.024-.228-.05-.342-.073-.647-.12-1,.3-1.32.765l-.061.085c-.867,1.139-3.563,1.049-4.358-.086-.067-.1-.132-.2-.2-.3a1.111,1.111,0,0,0-1.172-.456c-.105.023-.21.048-.315.07-1.7.33-3.386-1.921-3.055-3.44.009-.044.018-.087.025-.131a1.059,1.059,0,0,0-.457-1.024c-.114-.079-.233-.151-.347-.23a3.128,3.128,0,0,1,0-4.391c.114-.079.233-.151.347-.23a1.245,1.245,0,0,0,.366-1.428c-.009-.044-.018-.088-.026-.132-.229-1.387,1.75-3.314,3.127-3.044.122.026.242.058.364.084a1.1,1.1,0,0,0,1.141-.461c.067-.1.131-.2.2-.3a2.436,2.436,0,0,1,2.133-.844h.157m-.147,1.192c-.675.008-.982.071-1.358.625q-.045.065-.092.129a2.282,2.282,0,0,1-2.275.825c-.127-.027-.252-.062-.378-.087-.32-.058-.634.29-.832.471-.541.494-.944.838-.781,1.562.011.051.021.1.03.153a2.429,2.429,0,0,1-1.292,2.461q-.036.025-.07.052a2.226,2.226,0,0,0,.07,2.383c.1.071.211.137.316.208a2.438,2.438,0,0,1,.876,2.724c0,.026-.009.052-.012.078-.073.826,1.318,1.714,2.041,1.556l.149-.029a2.441,2.441,0,0,1,2.46,1.288c.017.024.035.048.054.07a2.208,2.208,0,0,0,2.381-.07c.072-.1.139-.21.21-.314a2.437,2.437,0,0,1,2.7-.882l.086.013c.564.056,1.741-1.162,1.636-1.735-.024-.125-.054-.248-.079-.372a2.454,2.454,0,0,1,1.272-2.537c.024-.018.047-.035.07-.054a2.2,2.2,0,0,0-.071-2.38c-.1-.073-.208-.14-.312-.21a2.447,2.447,0,0,1-.884-2.7c.005-.029.01-.058.013-.087.052-.576-1.161-1.734-1.734-1.635-.124.023-.247.052-.371.076a2.447,2.447,0,0,1-2.535-1.276c-.017-.024-.035-.048-.053-.071-.208-.246-.711-.231-.966-.239q-.133,0-.267,0" transform="translate(1022.829 3014.215)" fill="url(#linear-gradient)"/>
      <g transform="matrix(1, 0, 0, 1, 1182.57, 3105.75)" filter="url(#Path_67534)">
        <path id="Path_67534-3" data-name="Path 67534" d="M168.7,91.786a2.531,2.531,0,0,1,2.347,1.165c.023.033.046.066.071.1a1.051,1.051,0,0,0,1.009.35c.136-.025.271-.058.408-.083a3.127,3.127,0,0,1,3.105,3.106c-.025.136-.058.271-.083.408-.108.622.32.986.773,1.3l.085.062c1.386,1.068.889,3.684-.386,4.552-.037.025-.073.051-.108.078-.463.361-.388.893-.286,1.386.007.034.013.068.019.1.217,1.4-1.8,3.3-3.16,3.04-.114-.024-.228-.05-.342-.073-.647-.12-1,.3-1.32.765l-.061.085c-.867,1.139-3.563,1.049-4.358-.086-.067-.1-.132-.2-.2-.3a1.111,1.111,0,0,0-1.172-.456c-.105.023-.21.048-.315.07-1.7.33-3.386-1.921-3.055-3.44.009-.044.018-.087.025-.131a1.059,1.059,0,0,0-.457-1.024c-.114-.079-.233-.151-.347-.23a3.128,3.128,0,0,1,0-4.391c.114-.079.233-.151.347-.23a1.245,1.245,0,0,0,.366-1.428c-.009-.044-.018-.088-.026-.132-.229-1.387,1.75-3.314,3.127-3.044.122.026.242.058.364.084a1.1,1.1,0,0,0,1.141-.461c.067-.1.131-.2.2-.3a2.436,2.436,0,0,1,2.133-.844h.157m-.147,1.192c-.675.008-.982.071-1.358.625q-.045.065-.092.129a2.282,2.282,0,0,1-2.275.825c-.127-.027-.252-.062-.378-.087-.32-.058-.634.29-.832.471-.541.494-.944.838-.781,1.562.011.051.021.1.03.153a2.429,2.429,0,0,1-1.292,2.461q-.036.025-.07.052a2.226,2.226,0,0,0,.07,2.383c.1.071.211.137.316.208a2.438,2.438,0,0,1,.876,2.724c0,.026-.009.052-.012.078-.073.826,1.318,1.714,2.041,1.556l.149-.029a2.441,2.441,0,0,1,2.46,1.288c.017.024.035.048.054.07a2.208,2.208,0,0,0,2.381-.07c.072-.1.139-.21.21-.314a2.437,2.437,0,0,1,2.7-.882l.086.013c.564.056,1.741-1.162,1.636-1.735-.024-.125-.054-.248-.079-.372a2.454,2.454,0,0,1,1.272-2.537c.024-.018.047-.035.07-.054a2.2,2.2,0,0,0-.071-2.38c-.1-.073-.208-.14-.312-.21a2.447,2.447,0,0,1-.884-2.7c.005-.029.01-.058.013-.087.052-.576-1.161-1.734-1.734-1.635-.124.023-.247.052-.371.076a2.447,2.447,0,0,1-2.535-1.276c-.017-.024-.035-.048-.053-.071-.208-.246-.711-.231-.966-.239q-.133,0-.267,0" transform="translate(-159.74 -91.54)" fill="#fff"/>
      </g>
      <path id="Path_67534-4" data-name="Path 67534" d="M168.7,91.786a2.531,2.531,0,0,1,2.347,1.165c.023.033.046.066.071.1a1.051,1.051,0,0,0,1.009.35c.136-.025.271-.058.408-.083a3.127,3.127,0,0,1,3.105,3.106c-.025.136-.058.271-.083.408-.108.622.32.986.773,1.3l.085.062c1.386,1.068.889,3.684-.386,4.552-.037.025-.073.051-.108.078-.463.361-.388.893-.286,1.386.007.034.013.068.019.1.217,1.4-1.8,3.3-3.16,3.04-.114-.024-.228-.05-.342-.073-.647-.12-1,.3-1.32.765l-.061.085c-.867,1.139-3.563,1.049-4.358-.086-.067-.1-.132-.2-.2-.3a1.111,1.111,0,0,0-1.172-.456c-.105.023-.21.048-.315.07-1.7.33-3.386-1.921-3.055-3.44.009-.044.018-.087.025-.131a1.059,1.059,0,0,0-.457-1.024c-.114-.079-.233-.151-.347-.23a3.128,3.128,0,0,1,0-4.391c.114-.079.233-.151.347-.23a1.245,1.245,0,0,0,.366-1.428c-.009-.044-.018-.088-.026-.132-.229-1.387,1.75-3.314,3.127-3.044.122.026.242.058.364.084a1.1,1.1,0,0,0,1.141-.461c.067-.1.131-.2.2-.3a2.436,2.436,0,0,1,2.133-.844h.157m-.147,1.192c-.675.008-.982.071-1.358.625q-.045.065-.092.129a2.282,2.282,0,0,1-2.275.825c-.127-.027-.252-.062-.378-.087-.32-.058-.634.29-.832.471-.541.494-.944.838-.781,1.562.011.051.021.1.03.153a2.429,2.429,0,0,1-1.292,2.461q-.036.025-.07.052a2.226,2.226,0,0,0,.07,2.383c.1.071.211.137.316.208a2.438,2.438,0,0,1,.876,2.724c0,.026-.009.052-.012.078-.073.826,1.318,1.714,2.041,1.556l.149-.029a2.441,2.441,0,0,1,2.46,1.288c.017.024.035.048.054.07a2.208,2.208,0,0,0,2.381-.07c.072-.1.139-.21.21-.314a2.437,2.437,0,0,1,2.7-.882l.086.013c.564.056,1.741-1.162,1.636-1.735-.024-.125-.054-.248-.079-.372a2.454,2.454,0,0,1,1.272-2.537c.024-.018.047-.035.07-.054a2.2,2.2,0,0,0-.071-2.38c-.1-.073-.208-.14-.312-.21a2.447,2.447,0,0,1-.884-2.7c.005-.029.01-.058.013-.087.052-.576-1.161-1.734-1.734-1.635-.124.023-.247.052-.371.076a2.447,2.447,0,0,1-2.535-1.276c-.017-.024-.035-.048-.053-.071-.208-.246-.711-.231-.966-.239q-.133,0-.267,0" transform="translate(1022.829 3014.215)" fill="none" stroke="#7c35ab" stroke-width="0.5"/>
    </g>
    <path id="Path_67535" data-name="Path 67535" d="M287.394,214.373a3.15,3.15,0,0,1,.414.034,2.982,2.982,0,1,1-3.123,1.622,3.008,3.008,0,0,1,1.378-1.362,2.966,2.966,0,0,1,.8-.254,3.13,3.13,0,0,1,.413-.039h.115Zm-.062,1.192a1.788,1.788,0,0,0-1.55.937,1.771,1.771,0,0,0-.18.491,1.8,1.8,0,0,0-.019.611,1.779,1.779,0,0,0,.159.524,1.8,1.8,0,0,0,.937.882,1.785,1.785,0,0,0,1.909-.362,1.817,1.817,0,0,0,.379-.52,1.787,1.787,0,0,0-.072-1.683,1.789,1.789,0,0,0-1.518-.88h-.046Z" transform="translate(904.094 2897.196)" fill="url(#linear-gradient)"/>
  </g>
</svg>
