<svg xmlns="http://www.w3.org/2000/svg" width="19.008" height="16.026" viewBox="0 0 19.008 16.026">
  <g id="Group_38840" data-name="Group 38840" transform="translate(-41.73 -486.619)">
    <g id="Icon_ionic-ios-share-alt" data-name="Icon ionic-ios-share-alt" transform="translate(42.233 487.119)">
      <path id="Icon_ionic-ios-share-alt-2" data-name="Icon ionic-ios-share-alt" d="M22.347,13.05,15.732,6.862a.338.338,0,0,0-.263-.113c-.206.009-.469.155-.469.375v3.1a.2.2,0,0,1-.169.192C8.255,11.428,5.485,16.35,4.505,21.46c-.038.2.234.389.361.23A11.955,11.955,0,0,1,14.8,16.655a.232.232,0,0,1,.2.225v3.047a.4.4,0,0,0,.68.248l6.661-6.3a.518.518,0,0,0,.164-.394A.628.628,0,0,0,22.347,13.05Z" transform="translate(-4.502 -6.749)" fill="none" stroke="#000" strokeWidth="1"/>
    </g>
  </g>
</svg>
