<svg xmlns="http://www.w3.org/2000/svg" width="41.76" height="40.133" viewBox="0 0 41.76 40.133">
  <path id="Path_100206" data-name="Path 100206" d="M31.325,1.208l2.452,4.6,4.6,2.452-4.6,2.452-2.452,4.6-2.452-4.6-4.6-2.452,4.6-2.452ZM19.548,16.316l9.3,4.959-9.3,4.958-4.958,9.3-4.959-9.3-9.3-4.958,9.3-4.959,4.959-9.3Zm1.395,4.959L16.8,19.065l-2.21-4.143-2.21,4.143-4.143,2.21,4.143,2.21,2.21,4.143,2.21-4.143Zm15.34,8.058-3.1-5.811-3.1,5.811-5.811,3.1,5.811,3.1,3.1,5.811,3.1-5.811,5.811-3.1Z" transform="translate(-0.334 -1.208)" fill="#7c35ab"/>
</svg>
