<svg xmlns="http://www.w3.org/2000/svg" width="106.718" height="107.139" viewBox="0 0 106.718 107.139">
  <g id="Group_38978" data-name="Group 38978" transform="translate(-11746.507 -2294.189)">
    <path id="Path_67298" data-name="Path 67298" d="M142.494,123.937A53.569,53.569,0,1,1,142.722,16.8a51.454,51.454,0,0,1,16.641,2.736,2.255,2.255,0,1,1-1.255,4.331h-.114A49.315,49.315,0,0,0,95.649,55.322a48.431,48.431,0,0,0-2.507,15.045,49.324,49.324,0,0,0,98.02,7.409,2.3,2.3,0,0,1,4.559.684c-3.989,25.987-26.9,45.477-53.227,45.477Z" transform="translate(11657.469 2277.391)" fill="#00d9b7"/>
    <path id="Path_67299" data-name="Path 67299" d="M245.7,158.835a2.251,2.251,0,0,1-1.6-.684l-22.226-22.112a2.257,2.257,0,1,1,3.191-3.191l20.63,20.516,47.3-47.073a2.258,2.258,0,1,1,3.305,3.078l-.114.114-48.9,48.668a2.253,2.253,0,0,1-1.6.684Z" transform="translate(11552.206 2206.705)" fill="#00d9b7"/>
  </g>
</svg>
