<svg xmlns="http://www.w3.org/2000/svg" width="25" height="25" viewBox="0 0 25 25">
  <g id="Group_39703" data-name="Group 39703" transform="translate(-499 -146)">
    <g id="Ellipse_395" data-name="Ellipse 395" transform="translate(499 146)" fill="none" stroke="#7c35ab" stroke-width="1">
      <circle cx="12.5" cy="12.5" r="12.5" stroke="none"/>
      <circle cx="12.5" cy="12.5" r="12" fill="none"/>
    </g>
    <g id="Group_38712" data-name="Group 38712" transform="translate(508.121 155.745)">
      <path id="Path_1071" data-name="Path 1071" d="M137.186,176.058a.6.6,0,0,0-.868,0l-4.758,4.758-2.41-2.41a.614.614,0,0,0-.868.868l2.844,2.844a.56.56,0,0,0,.434.184.567.567,0,0,0,.434-.184l5.192-5.192A.6.6,0,0,0,137.186,176.058Z" transform="translate(-128.098 -175.874)" fill="#7c35ab"/>
    </g>
  </g>
</svg>
