<svg id="Group_39469" data-name="Group 39469" xmlns="http://www.w3.org/2000/svg" width="19.298" height="19.298" viewBox="0 0 19.298 19.298">
  <path id="Path_67845" data-name="Path 67845" d="M0,0H19.3V19.3H0Z" fill="none"/>
  <path id="Path_67846" data-name="Path 67846" d="M2,8.226V3.8A.8.8,0,0,1,2.8,3H17.277a.8.8,0,0,1,.8.8V8.226a2.01,2.01,0,0,0,0,4.02v4.422a.8.8,0,0,1-.8.8H2.8a.8.8,0,0,1-.8-.8V12.247a2.01,2.01,0,1,0,0-4.02Zm5.628-.4V9.433h4.824V7.824Zm0,3.216v1.608h4.824V11.041Z" transform="translate(-0.392 -0.588)"/>
</svg>
