<svg id="Group_39468" data-name="Group 39468" xmlns="http://www.w3.org/2000/svg" xmlns:xlink="http://www.w3.org/1999/xlink" width="22" height="22" viewBox="0 0 22 22">
  <defs>
    <linearGradient id="linear-gradient" x1="0.5" x2="0.5" y2="1" gradientUnits="objectBoundingBox">
      <stop offset="0" stop-color="#528ffe"/>
      <stop offset="1" stop-color="#7c35ab"/>
    </linearGradient>
  </defs>
  <path id="Path_67843" data-name="Path 67843" d="M0,0H22V22H0Z" fill="none"/>
  <path id="Path_67844" data-name="Path 67844" d="M2,8.958V3.917A.917.917,0,0,1,2.917,3h16.5a.917.917,0,0,1,.917.917V8.958a2.292,2.292,0,0,0,0,4.583v5.042a.917.917,0,0,1-.917.917H2.917A.917.917,0,0,1,2,18.583V13.542A2.292,2.292,0,1,0,2,8.958Zm1.833-1.4a4.125,4.125,0,0,1,0,7.392v2.721H18.5V14.946a4.125,4.125,0,0,1,0-7.392V4.833H3.833ZM8.417,8.5h5.5v1.833h-5.5Zm0,3.667h5.5V14h-5.5Z" transform="translate(-0.167 -0.25)" fill="url(#linear-gradient)"/>
</svg>
