<svg xmlns="http://www.w3.org/2000/svg" width="12.114" height="14.91" viewBox="0 0 12.114 14.91">
  <g id="trash" transform="translate(-48)">
    <path id="Path_67206" data-name="Path 67206" d="M58.949,1.864H56.387V1.4a1.4,1.4,0,0,0-1.4-1.4H53.125a1.4,1.4,0,0,0-1.4,1.4v.466H49.165A1.165,1.165,0,0,0,48,3.029V3.96a.466.466,0,0,0,.466.466H59.648a.466.466,0,0,0,.466-.466V3.029A1.165,1.165,0,0,0,58.949,1.864ZM52.659,1.4a.467.467,0,0,1,.466-.466h1.864a.467.467,0,0,1,.466.466v.466h-2.8Z" fill="#fff"/>
    <path id="Path_67207" data-name="Path 67207" d="M73.51,184a.146.146,0,0,0-.145.153l.384,8.068a1.4,1.4,0,0,0,1.4,1.331H82.22a1.4,1.4,0,0,0,1.4-1.331L84,184.153a.146.146,0,0,0-.145-.153Zm7.037,1.165a.466.466,0,0,1,.932,0v6.057a.466.466,0,1,1-.932,0Zm-2.33,0a.466.466,0,0,1,.932,0v6.057a.466.466,0,1,1-.932,0Zm-2.33,0a.466.466,0,0,1,.932,0v6.057a.466.466,0,1,1-.932,0Z" transform="translate(-24.626 -178.642)" fill="#fff"/>
  </g>
</svg>