<svg xmlns="http://www.w3.org/2000/svg" width="17.875" height="22" viewBox="0 0 17.875 22">
  <g id="trash" transform="translate(-48)">
    <path id="Path_67206" data-name="Path 67206" d="M64.156,2.75H60.375V2.063A2.062,2.062,0,0,0,58.313,0h-2.75A2.062,2.062,0,0,0,53.5,2.063V2.75H49.719A1.719,1.719,0,0,0,48,4.469V5.844a.687.687,0,0,0,.688.688h16.5a.687.687,0,0,0,.688-.687V4.469A1.719,1.719,0,0,0,64.156,2.75Zm-9.281-.687a.688.688,0,0,1,.688-.687h2.75A.688.688,0,0,1,59,2.063V2.75H54.875Z"/>
    <path id="Path_67207" data-name="Path 67207" d="M73.579,184a.215.215,0,0,0-.215.225l.567,11.9a2.06,2.06,0,0,0,2.06,1.965H86.432a2.06,2.06,0,0,0,2.06-1.965l.567-11.9a.215.215,0,0,0-.215-.225Zm10.383,1.719a.688.688,0,0,1,1.375,0v8.938a.688.688,0,0,1-1.375,0Zm-3.437,0a.688.688,0,0,1,1.375,0v8.938a.688.688,0,0,1-1.375,0Zm-3.437,0a.688.688,0,0,1,1.375,0v8.938a.688.688,0,0,1-1.375,0Z" transform="translate(-24.274 -176.094)"/>
  </g>
</svg>
