<svg xmlns="http://www.w3.org/2000/svg" width="20.058" height="16.646" viewBox="0 0 20.058 16.646">
  <path id="Path_67982" data-name="Path 67982" d="M15.35,5.55A2.9,2.9,0,0,0,12.45,8.4l-.028,1.575a.6.6,0,0,1-.611.589.591.591,0,0,1-.07-.005l-1.561-.213a11.706,11.706,0,0,1-5.91-2.8c-.6,3.31.569,5.6,3.383,7.372l1.747,1.1a.6.6,0,0,1,.035.992L7.843,18.169a10.3,10.3,0,0,0,2.592-.131c4.718-.941,7.855-4.492,7.855-10.348A3.021,3.021,0,0,0,15.35,5.55Zm-4.9,2.811a4.9,4.9,0,0,1,8.384-3.356A3.857,3.857,0,0,0,21.5,4.359,7.222,7.222,0,0,1,20.29,7.691c0,7.642-4.7,11.358-9.463,12.309-3.268.652-8.02-.419-9.381-1.841a11.535,11.535,0,0,0,5.144-1.549C5.21,15.7-.279,12.468,3.328,3.786a14.055,14.055,0,0,0,5.15,4.036A5.856,5.856,0,0,0,10.451,8.361Z" transform="translate(-1.445 -3.55)"/>
</svg>
