<svg xmlns="http://www.w3.org/2000/svg" width="71" height="71" viewBox="0 0 71 71">
  <g id="Group_39789" data-name="Group 39789" transform="translate(-0.482)">
    <circle id="Ellipse_443" data-name="Ellipse 443" cx="35.5" cy="35.5" r="35.5" transform="translate(0.482)" fill="#fff"/>
    <g id="Group_39062" data-name="Group 39062" transform="translate(18.677 18.677)">
      <path id="Path_67542" data-name="Path 67542" d="M0,0H32.985V32.985H0Z" fill="none"/>
      <path id="Path_67543" data-name="Path 67543" d="M2,26.739H29.488v2.749H2Zm2.749-11H7.5v9.621H4.749Zm6.872,0h2.749v9.621H11.621Zm5.5,0h2.749v9.621H17.118Zm6.872,0h2.749v9.621H23.99ZM2,8.872,15.744,2,29.488,8.872v5.5H2Zm2.749,1.7v1.05h21.99v-1.05l-11-5.5Zm11-.324a1.374,1.374,0,1,1,1.374-1.374A1.374,1.374,0,0,1,15.744,10.246Z" transform="translate(0.749 0.749)" fill="#00d9b7"/>
    </g>
  </g>
</svg>
