<svg xmlns="http://www.w3.org/2000/svg" width="15.949" height="17.721" viewBox="0 0 15.949 17.721">
  <path id="Path_67541" data-name="Path 67541" d="M15.4,14.4h1.772V3.772H8.316V5.544H15.4Zm0,1.772v2.658a.889.889,0,0,1-.892.886H3.892A.887.887,0,0,1,3,18.835L3,6.43a.889.889,0,0,1,.892-.886H6.544V2.886A.886.886,0,0,1,7.43,2H18.063a.886.886,0,0,1,.886.886v12.4a.886.886,0,0,1-.886.886ZM4.775,7.316l0,10.633h8.861V7.316ZM6.544,14.4h3.987a.443.443,0,1,0,0-.886H7.873a2.215,2.215,0,0,1,0-4.43h.443V8.2h1.772v.886h1.772v1.772H7.873a.443.443,0,1,0,0,.886h2.658a2.215,2.215,0,0,1,0,4.43h-.443v.886H8.316v-.886H6.544Z" transform="translate(-3 -2)"/>
</svg>
