<svg xmlns="http://www.w3.org/2000/svg" width="33.074" height="33.074" viewBox="0 0 33.074 33.074">
  <path id="Path_100208" data-name="Path 100208" d="M24.4,15.338a4.485,4.485,0,0,1-1.363-2.675l-.7-5.318L17.634,9.909a4.486,4.486,0,0,1-2.965.47L9.4,9.4l.982,5.272a4.485,4.485,0,0,1-.47,2.965L7.346,22.345l5.318.7A4.485,4.485,0,0,1,15.338,24.4L19.026,28.3l2.3-4.843a4.485,4.485,0,0,1,2.123-2.123l4.843-2.3Zm.043,9.6-3.817,8.022a1.035,1.035,0,0,1-1.686.267l-6.11-6.45a1.034,1.034,0,0,0-.617-.314L3.407,25.31a1.035,1.035,0,0,1-.775-1.521l4.246-7.8a1.035,1.035,0,0,0,.108-.684L5.36,6.567A1.035,1.035,0,0,1,6.567,5.36L15.3,6.987a1.035,1.035,0,0,0,.684-.108l7.8-4.246a1.035,1.035,0,0,1,1.521.775l1.152,8.809a1.036,1.036,0,0,0,.314.617l6.45,6.109a1.035,1.035,0,0,1-.267,1.686l-8.022,3.817A1.035,1.035,0,0,0,24.446,24.936Zm1.375,3.325,2.44-2.44L35.58,33.14l-2.44,2.44Z" transform="translate(-2.506 -2.506)" fill="#7c35ab"/>
</svg>
