<svg xmlns="http://www.w3.org/2000/svg" width="87.813" height="94.048" viewBox="0 0 87.813 94.048">
  <g id="Group_38921" data-name="Group 38921" transform="translate(-156.738 -133.343)">
    <path id="Path_67242" data-name="Path 67242" d="M347.689,35.121a1.092,1.092,0,0,0,.427.085,1.11,1.11,0,0,0,1.025-.682l1.619-3.885a1.108,1.108,0,1,0-2.046-.854l-1.621,3.886a1.109,1.109,0,0,0,.6,1.45Z" transform="translate(-147.847 105.764)" fill="#00d9b7"/>
    <path id="Path_67243" data-name="Path 67243" d="M308.336,26.787a1.108,1.108,0,0,0,1.032.7,1.076,1.076,0,0,0,.405-.078,1.106,1.106,0,0,0,.625-1.438l-1.741-4.429a1.109,1.109,0,1,0-2.064.813Z" transform="translate(-114.833 112.5)" fill="#00d9b7"/>
    <path id="Path_67244" data-name="Path 67244" d="M190.212,116.974l-4.977-16.286c.493-3.058,3.615-22.113-4.76-49.511a1.719,1.719,0,0,0-2.144-1.139L158.518,56.1a1.72,1.72,0,0,0-1.138,2.144q.615,2,1.259,3.911L138.914,57.6a1.718,1.718,0,0,0-2.059,1.286c-6.444,27.917-2,46.706-1.3,49.722L131.731,125.2c-2.106,9.126-16.953,2.445-14.11,7l27.913,6.444c4.548-2.842-11.723-3.346-9.615-12.472l3.831-16.594c1.917-2.354,13.7-16.749,20.241-43.6,8.275,22.327,19.222,33.938,21.131,35.976l4.98,16.284c2.739,8.959-13.457,10.6-8.722,13.118l27.4-8.378c2.52-4.737-11.825,2.963-14.564-5.994ZM157.073,65.31c-5.78,25.036-15.489,39.81-17.891,42.864-.35.444-.516.636-.518.638a1.69,1.69,0,0,0-.374.735l-3.763,16.3c-.968,4.195.307,5.692,1.865,7.17l-2.216-.512-3.663-.846-2.213-.513c2.046-.644,3.849-1.43,4.817-5.624l3.761-16.294a1.7,1.7,0,0,0-.012-.828s-.067-.246-.186-.8c-.82-3.8-3.068-21.332,2.712-46.367l.5-2.161,6.3,1.456,5.072,1.171,6.305,1.455Zm34.8,58.021-3.6,1.1-2.172.665c1.448-1.583,2.617-3.165,1.359-7.283l-4.889-15.991a1.724,1.724,0,0,0-.424-.71s-.184-.182-.563-.6C178.981,97.632,168.265,83.572,160.753,59l-.648-2.12,6.188-1.891,11.163-3.414.648,2.12c7.513,24.573,6.493,42.221,5.94,46.066-.079.56-.127.808-.129.81a1.7,1.7,0,0,0,.045.826l4.889,15.993c1.259,4.116,3.112,4.774,5.2,5.278Z" transform="translate(39.478 88.755)" fill="#00d9b7"/>
    <path id="Path_67245" data-name="Path 67245" d="M281.674,58.667a1.109,1.109,0,1,0,1.381-1.736l-3.7-2.941a1.109,1.109,0,1,0-1.381,1.736Z" transform="translate(-91.223 85.669)" fill="#00d9b7"/>
    <path id="Path_67246" data-name="Path 67246" d="M223.243,144.694c-2.168,13.925-2.478,29.111.975,29.909,4.227.975,12.782-19.875,16.39-35.264-2.8-3.559-3.267,2.18-7.635,2.486-3.868.272-9.1-2.059-9.73,2.869Zm6.9,1.334a.541.541,0,1,1,.406.651A.54.54,0,0,1,230.138,146.028Zm.148,9.529a.627.627,0,1,1-.753.47A.627.627,0,0,1,230.286,155.557Zm-1.963-4.334a.627.627,0,1,1,.47.752.627.627,0,0,1-.47-.752Zm-1.634-8.973a.626.626,0,1,1-.732.5.626.626,0,0,1,.732-.5Zm-2.641,4.02a.627.627,0,1,1,.47.753A.627.627,0,0,1,224.048,146.27Zm-.407,11.354a.627.627,0,1,1,.754-.47A.629.629,0,0,1,223.641,157.625Zm1.683,14.239a.627.627,0,1,1-.47-.754.629.629,0,0,1,.47.754Zm.107-10.021a.626.626,0,1,1-.468-.754A.626.626,0,0,1,225.432,161.843Zm1.646,5.008a.627.627,0,1,1-.47-.75.631.631,0,0,1,.47.75Zm.226-13.137a.627.627,0,1,1-.468-.752A.627.627,0,0,1,227.3,153.714ZM238.56,144.5a.627.627,0,1,1-.47-.754A.629.629,0,0,1,238.56,144.5Zm-4.873-1.588a.627.627,0,1,1,.471.753A.627.627,0,0,1,233.687,142.91Zm-.335,5.213a.624.624,0,0,1,1.22.007c.8-2.529,1.393-4.651,1.8-6.239a14.039,14.039,0,0,0,1.752-1.815,139.427,139.427,0,0,1-9.412,26.521.633.633,0,0,1-.718.351.611.611,0,0,1-.123-.043.628.628,0,0,1-.31-.84,150.98,150.98,0,0,0,6.828-17.356.621.621,0,0,1-.568.167.628.628,0,0,1-.47-.752Z" transform="translate(-45.608 16.829)" fill="#00d9b7"/>
    <path id="Path_67247" data-name="Path 67247" d="M381.731,120.387c-1.458,0-3.015,1.016-5.536,1.016-5.189.249-7.393-7.757-9.992-3.274,4.968,14.7,14.115,32.564,18.027,31.36,3.2-.983,2.123-14.571-.68-27.658a1.729,1.729,0,0,0-1.818-1.443Zm-2.24,6.15a.627.627,0,1,1-.412.783A.627.627,0,0,1,379.492,126.537Zm-10.5-5.937a.627.627,0,1,1,.414-.785A.629.629,0,0,1,368.988,120.6Zm3.811,3.919a.627.627,0,1,1,.412-.784A.622.622,0,0,1,372.8,124.519Zm1.564,3.719a.627.627,0,1,1,.413-.784A.628.628,0,0,1,374.363,128.238Zm1.667-5.369a.627.627,0,1,1,.785.414A.623.623,0,0,1,376.029,122.869Zm1.142,9.546a.628.628,0,1,1,.414-.786A.628.628,0,0,1,377.171,132.415Zm2.378,8.575a.627.627,0,1,1,.413-.784A.63.63,0,0,1,379.549,140.989Zm1.119-4.531a.627.627,0,1,1,.413-.783A.631.631,0,0,1,380.668,136.458Zm3.044,10.8a.627.627,0,1,1,.413-.784A.63.63,0,0,1,383.712,147.259Zm-.085-6.271a.456.456,0,0,1-.128.025.628.628,0,0,1-.689-.573,152.623,152.623,0,0,0-2.327-16.245l-.3-1.55,1.207-.351.322,1.576a153.886,153.886,0,0,1,2.363,16.457.634.634,0,0,1-.447.662Zm-.489-17.271a.628.628,0,1,1,.415-.786A.628.628,0,0,1,383.138,123.717Z" transform="translate(-163.498 34.291)" fill="#00d9b7"/>
    <path id="Path_67248" data-name="Path 67248" d="M428.4,93.658c.434-.124.84-.245,1.221-.343-.923-3.611-2.079-7.356-2.094-7.4a.636.636,0,0,0-1.2.422c.017.048,1.163,3.764,2.072,7.325Z" transform="translate(-212.496 59.79)" fill="#00d9b7"/>
  </g>
</svg>
